<svg width="253" height="322" viewBox="0 0 253 322" fill="none" xmlns="http://www.w3.org/2000/svg">
<path d="M125.698 321.254L31.0462 220.858L23.9666 74.6364L56.9125 107.478L125.941 18.6365L56.9125 89.1916C56.9125 89.1916 -0.0331356 15.8255 0.0110425 15.8755L3.81037 235.414C3.79932 235.634 125.698 321.254 125.698 321.254Z" fill="white"/>
<path d="M51.7547 172.611L98.0865 213.256L88.8312 165.859L48.2535 125.375" fill="white"/>
<path d="M25.303 76.357L115.349 166.269L0 15.8755L25.303 76.357Z" fill="white"/>
<path d="M126.758 321.254L221.41 220.858L228.489 74.6364L195.543 107.478L126.515 18.6365L195.543 89.1916C195.543 89.1916 252.489 15.8255 252.445 15.8755L248.646 235.414C248.657 235.634 126.758 321.254 126.758 321.254Z" fill="white"/>
<path d="M200.69 172.611L154.358 213.256L163.614 165.859L204.191 125.375" fill="white"/>
<path d="M227.142 76.357L137.096 166.269L252.445 15.8755L227.142 76.357Z" fill="white"/>
<path d="M162.874 140.53L194.936 110.609L154.358 213.256L228.489 74.5565L201.85 101.506L246.448 0L162.874 140.53Z" fill="#C861FF"/>
</svg>
