<svg width="252" height="322" viewBox="0 0 252 322" fill="none" xmlns="http://www.w3.org/2000/svg">
<path d="M125.115 321.254L30.9023 220.858L23.8555 74.6364L56.6486 107.478L125.357 18.6365L56.6486 89.1916C56.6486 89.1916 -0.0329614 15.8255 0.0110119 15.8755L3.79272 235.414C3.78173 235.634 125.115 321.254 125.115 321.254Z" fill="black"/>
<path d="M51.5147 172.611L97.6317 213.256L88.4302 165.859L48.0408 125.375" fill="black"/>
<path d="M25.1967 76.357L114.825 166.269L0 15.8755L25.1967 76.357Z" fill="black"/>
<path d="M126.17 321.254L220.383 220.858L227.43 74.6364L194.637 107.478L125.928 18.6365L194.637 89.1916C194.637 89.1916 251.318 15.8255 251.274 15.8755L247.493 235.414C247.504 235.634 126.17 321.254 126.17 321.254Z" fill="black"/>
<path d="M199.771 172.611L153.654 213.256L162.855 165.859L203.256 125.375" fill="black"/>
<path d="M226.089 76.357L136.471 166.269L251.285 15.8755L226.089 76.357Z" fill="black"/>
<path d="M162.119 140.53L194.043 110.609L153.654 213.256L227.441 74.5565L200.925 101.506L245.305 0L162.119 140.53Z" fill="#C861FF"/>
</svg>
