<svg preserveAspectRatio="xMidYMid meet" width="100%" height="100%" overflow="visible" style="display: block;" viewBox="0 0 95.1954 71.9101" fill="none" xmlns="http://www.w3.org/2000/svg">
<g id="Group 76">
<path id="Vector" d="M10.168 4.83744H89.8213C92.5065 4.83744 94.6953 7.03038 94.6953 9.72611V63.5542C94.6953 66.2499 92.5064 68.4429 89.8213 68.4429H10.168C7.48286 68.4429 5.29399 66.2499 5.29397 63.5542V9.72611L5.30081 9.47416C5.4319 6.89491 7.56689 4.83744 10.168 4.83744Z" fill="var(--fill-0, #66388F)" fill-opacity="0.25" stroke="var(--stroke-0, #D7CACA)"/>
<path id="Vector_2" d="M6.75747 1.86962H86.612C89.3053 1.86962 91.4997 4.06584 91.4997 6.76415V41.7329H1.86978V6.76415C1.86978 4.06584 4.06418 1.86962 6.75747 1.86962Z" fill="var(--fill-0, #66388F)" fill-opacity="0.25" stroke="var(--stroke-0, #D7CACA)"/>
<path id="Vector_3" d="M91.4996 33.8297V60.5787C91.4996 63.278 89.3056 65.4742 86.6129 65.4743H6.76716C4.06291 65.4742 1.8697 63.2774 1.8697 60.5787V33.8297H91.4996Z" fill="var(--fill-0, #322A43)" fill-opacity="0.25" stroke="var(--stroke-0, #D7CACA)"/>
<path id="Vector_4" d="M6.8457 0.5H86.5234C90.0219 0.500249 92.8691 3.34673 92.8691 6.84277V60.502C92.8583 63.9998 90.0201 66.8445 86.5234 66.8447H6.8457C3.34724 66.8445 0.500014 63.998 0.5 60.502V6.84277C0.5 3.34672 3.34723 0.500232 6.8457 0.5ZM6.8457 2.42969C4.41864 2.42992 2.43066 4.40369 2.43066 6.84277V60.502C2.43068 62.9284 4.40604 64.9148 6.8457 64.915H86.5234C88.9505 64.9148 90.9385 62.941 90.9385 60.502V6.84277C90.9385 4.4163 88.9631 2.42994 86.5234 2.42969H6.8457Z" fill="var(--fill-0, #F9F3FF)" fill-opacity="0.5" stroke="var(--stroke-0, #D7CACA)"/>
<path id="Vector_5" d="M46.7986 11.2294C52.0544 11.2294 57.0948 13.3177 60.8113 17.0341C64.5277 20.7506 66.6159 25.7909 66.616 31.0468C66.616 33.6493 66.1031 36.2264 65.1072 38.6308C64.1112 41.0351 62.6514 43.2193 60.8113 45.0595C58.9711 46.8997 56.7868 48.3595 54.3826 49.3554C51.9782 50.3513 49.401 50.8642 46.7986 50.8642C44.1961 50.8642 41.6189 50.3513 39.2146 49.3554C36.8104 48.3595 34.626 46.8996 32.7859 45.0595C30.9457 43.2193 29.4859 41.0351 28.49 38.6308C27.4941 36.2264 26.9812 33.6493 26.9812 31.0468L26.987 30.5546C27.1131 25.4771 29.1856 20.6344 32.7859 17.0341C36.5023 13.3176 41.5427 11.2294 46.7986 11.2294Z" fill="var(--fill-0, #B694D5)" fill-opacity="0.25" stroke="var(--stroke-0, #D7CACA)"/>
<path id="Vector_6" d="M46.6842 10.5445C58.054 10.5445 67.3013 19.791 67.3014 31.1607C67.3014 42.5199 58.0539 51.7779 46.6842 51.7779C35.3145 51.7778 26.068 42.5305 26.068 31.1607C26.0682 19.7911 35.3146 10.5447 46.6842 10.5445ZM46.6842 11.1676C35.6607 11.1677 26.6912 20.1372 26.6911 31.1607C26.6911 42.1848 35.6609 51.143 46.6842 51.1432C57.708 51.1432 66.6774 42.1738 66.6774 31.15C66.6773 20.1259 57.7076 11.1676 46.6842 11.1676Z" fill="var(--fill-0, #595757)" fill-opacity="0.25" stroke="var(--stroke-0, #D7CACA)"/>
<path id="Vector_7" d="M46.6843 14.4254C51.1238 14.4254 55.381 16.1773 58.5193 19.2945C61.6574 22.4118 63.4206 26.6394 63.4207 31.0465C63.4207 35.4537 61.6574 39.6811 58.5193 42.7984C55.381 45.9159 51.124 47.6686 46.6843 47.6686C42.2448 47.6685 37.9876 45.9159 34.8494 42.7984C31.7114 39.6811 29.949 35.4536 29.949 31.0465C29.9491 26.6394 31.7113 22.4118 34.8494 19.2945C37.9876 16.1771 42.2448 14.4255 46.6843 14.4254Z" fill="var(--fill-0, #252525)" fill-opacity="0.5" stroke="var(--stroke-0, #D7CACA)"/>
<path id="Vector_8" d="M46.6846 21.0457C49.3691 21.0457 51.9423 22.1012 53.8389 23.9773C55.7352 25.8533 56.7998 28.3961 56.7998 31.0467C56.7998 33.6974 55.7353 36.241 53.8389 38.117C51.9423 39.9931 49.369 41.0477 46.6846 41.0477C44.0002 41.0476 41.4268 39.9931 39.5303 38.117C37.6339 36.241 36.5693 33.6974 36.5693 31.0467C36.5694 28.3961 37.634 25.8533 39.5303 23.9773C41.4268 22.1012 44.0001 21.0457 46.6846 21.0457Z" fill="var(--fill-0, #E3CDF8)" stroke="var(--stroke-0, #D7CACA)"/>
<path id="Vector_9" d="M46.6843 20.3608C52.6399 20.3608 57.4848 25.1633 57.4851 31.0464C57.4851 36.9296 52.64 41.7329 46.6843 41.7329C40.7288 41.7327 35.8845 36.9295 35.8845 31.0464C35.8848 25.1634 40.7289 20.361 46.6843 20.3608ZM46.6843 20.6645C40.9044 20.6647 36.2022 25.324 36.2019 31.0464C36.2019 36.7693 40.9155 41.429 46.6843 41.4292C52.4646 41.4292 57.1677 36.7691 57.1677 31.0464C57.1675 25.3239 52.4644 20.6645 46.6843 20.6645Z" fill="var(--fill-0, #595757)" fill-opacity="0.25" stroke="var(--stroke-0, #D7CACA)"/>
<path id="Vector_10" d="M51.4786 24.2417C52.0963 24.2417 52.6928 24.4969 53.1358 24.9576C53.5795 25.419 53.8321 26.0488 53.8321 26.7095C53.8321 27.3702 53.5795 28.0001 53.1358 28.4615C52.6928 28.9221 52.0963 29.1773 51.4786 29.1773C50.8609 29.1773 50.2644 28.9222 49.8214 28.4615C49.3777 28.0001 49.1251 27.3702 49.1251 26.7095C49.1251 26.0488 49.3777 25.419 49.8214 24.9576C50.2644 24.4968 50.8609 24.2418 51.4786 24.2417Z" fill="var(--fill-0, white)" fill-opacity="0.25" stroke="var(--stroke-0, #D7CACA)"/>
<path id="Vector_11" d="M29.3004 54.1473H63.6129C64.76 54.1474 65.7027 55.0911 65.7027 56.2449C65.7027 57.0163 65.2762 57.6973 64.6519 58.0584C63.8441 57.2303 62.7096 56.7088 61.4644 56.7088H31.1246C29.9374 56.7088 28.8679 57.1792 28.0679 57.9344C27.5497 57.5469 27.2095 56.934 27.2095 56.2449C27.2096 55.091 28.1531 54.1473 29.3004 54.1473Z" fill="var(--fill-0, #1A1A1A)" fill-opacity="0.25" stroke="var(--stroke-0, #D7CACA)"/>
<path id="Vector_12" d="M28.2293 59.0486C28.5408 59.1553 28.8737 59.2146 29.2195 59.2147H63.7693C64.022 59.2146 64.2672 59.1789 64.4998 59.1209C64.8635 59.6637 65.0731 60.3086 65.0731 61.0125V61.0672L65.0848 61.1209L66.6141 67.9979C66.5855 69.8423 64.9354 71.4098 62.8348 71.41H29.8504C27.7495 71.41 26.0977 69.8424 26.0691 67.9979L27.5887 61.1317L27.6004 61.0779V61.0233C27.6004 60.2915 27.8362 59.6082 28.2293 59.0486Z" fill="var(--fill-0, #B694D5)" fill-opacity="0.25" stroke="var(--stroke-0, #D7CACA)"/>
<path id="Vector_13" d="M31.0598 57.5715H61.5266C62.3227 57.5715 63.0618 57.8765 63.6535 58.3977H29.2277C29.1402 58.3977 29.0539 58.3904 28.9689 58.3782C29.5551 57.8677 30.2798 57.5715 31.0598 57.5715Z" fill="var(--fill-0, #717071)" fill-opacity="0.25" stroke="var(--stroke-0, #D7CACA)"/>
<path id="Vector_14" d="M78.8727 22.8719C79.6733 22.8719 80.4451 23.2003 81.0162 23.7899C81.5877 24.3799 81.9117 25.1833 81.9118 26.0242C81.9118 26.8654 81.5879 27.6695 81.0162 28.2596C80.4451 28.8491 79.6733 29.1766 78.8727 29.1766C78.0722 29.1765 77.3011 28.849 76.7301 28.2596C76.1585 27.6695 75.8346 26.8654 75.8346 26.0242C75.8347 25.1832 76.1586 24.3799 76.7301 23.7899C77.3012 23.2004 78.0722 22.872 78.8727 22.8719Z" fill="var(--fill-0, #717071)" fill-opacity="0.25" stroke="var(--stroke-0, #D7CACA)"/>
<g id="Vector_15">
<mask id="path-15-inside-1_0_4" fill="white">
<path d="M78.7589 29.9054C76.6244 29.9054 74.878 28.1698 74.878 26.0245C74.878 23.89 76.6136 22.1437 78.7589 22.1437C80.8934 22.1437 82.6398 23.8793 82.6398 26.0245C82.6398 28.1698 80.9042 29.9054 78.7589 29.9054ZM78.7589 22.8012C76.9802 22.8012 75.5248 24.2458 75.5248 26.0353C75.5248 27.814 76.9694 29.2694 78.7589 29.2694C80.5484 29.2694 81.993 27.8248 81.993 26.0353C81.993 24.2458 80.5376 22.8012 78.7589 22.8012Z"/>
</mask>
<path d="M78.7589 29.9054C76.6244 29.9054 74.878 28.1698 74.878 26.0245C74.878 23.89 76.6136 22.1437 78.7589 22.1437C80.8934 22.1437 82.6398 23.8793 82.6398 26.0245C82.6398 28.1698 80.9042 29.9054 78.7589 29.9054ZM78.7589 22.8012C76.9802 22.8012 75.5248 24.2458 75.5248 26.0353C75.5248 27.814 76.9694 29.2694 78.7589 29.2694C80.5484 29.2694 81.993 27.8248 81.993 26.0353C81.993 24.2458 80.5376 22.8012 78.7589 22.8012Z" fill="var(--fill-0, #595757)" fill-opacity="0.25"/>
<path d="M78.7589 29.9054V28.9054C77.1749 28.9054 75.878 27.6157 75.878 26.0245H74.878H73.878C73.878 28.7239 76.0739 30.9054 78.7589 30.9054V29.9054ZM74.878 26.0245H75.878C75.878 24.4405 77.1677 23.1437 78.7589 23.1437V22.1437V21.1437C76.0595 21.1437 73.878 23.3396 73.878 26.0245H74.878ZM78.7589 22.1437V23.1437C80.3429 23.1437 81.6398 24.4334 81.6398 26.0245H82.6398H83.6398C83.6398 23.3252 81.4438 21.1437 78.7589 21.1437V22.1437ZM82.6398 26.0245H81.6398C81.6398 27.6175 80.3519 28.9054 78.7589 28.9054V29.9054V30.9054C81.4564 30.9054 83.6398 28.7221 83.6398 26.0245H82.6398ZM78.7589 22.8012V21.8012C76.43 21.8012 74.5248 23.6913 74.5248 26.0353H75.5248H76.5248C76.5248 24.8002 77.5303 23.8012 78.7589 23.8012V22.8012ZM75.5248 26.0353H74.5248C74.5248 28.3642 76.4149 30.2694 78.7589 30.2694V29.2694V28.2694C77.5238 28.2694 76.5248 27.2639 76.5248 26.0353H75.5248ZM78.7589 29.2694V30.2694C81.1007 30.2694 82.993 28.3771 82.993 26.0353H81.993H80.993C80.993 27.2725 79.9961 28.2694 78.7589 28.2694V29.2694ZM81.993 26.0353H82.993C82.993 23.6913 81.0877 21.8012 78.7589 21.8012V22.8012V23.8012C79.9875 23.8012 80.993 24.8002 80.993 26.0353H81.993Z" fill="var(--stroke-0, #D7CACA)" mask="url(#path-15-inside-1_0_4)"/>
</g>
<path id="Vector_16" d="M80.2387 24.0154C80.3011 24.0088 80.3796 24.0159 80.4701 24.0456C80.5608 24.0755 80.6579 24.1269 80.7533 24.2009C80.8486 24.2748 80.937 24.3672 81.0111 24.4734C81.0854 24.5796 81.1416 24.6947 81.1781 24.8093C81.2146 24.9239 81.2292 25.0319 81.226 25.1267C81.2227 25.2214 81.2028 25.2973 81.1752 25.3533C81.1481 25.4082 81.1131 25.446 81.0766 25.4714C81.0401 25.4968 80.9923 25.5158 80.9311 25.5222C80.8687 25.5286 80.7908 25.5216 80.7006 25.4919C80.6101 25.4621 80.5127 25.4115 80.4174 25.3376C80.3221 25.2637 80.2338 25.1704 80.1596 25.0642C80.0854 24.958 80.0281 24.8438 79.9916 24.7292C79.955 24.6144 79.9405 24.5058 79.9438 24.4109C79.947 24.3163 79.9681 24.2412 79.9955 24.1853C80.0225 24.1306 80.0568 24.0926 80.0932 24.0671C80.1297 24.0417 80.1774 24.0218 80.2387 24.0154Z" fill="var(--fill-0, #B4B4B5)" fill-opacity="0.5" stroke="var(--stroke-0, #D7CACA)"/>
<path id="Vector_17" d="M11.8709 22.872C12.707 22.872 13.5091 23.2046 14.1004 23.7958C14.6914 24.3869 15.0231 25.1884 15.0232 26.0243C15.0232 26.8604 14.6916 27.6626 14.1004 28.2538C13.5091 28.845 12.707 29.1767 11.8709 29.1767C11.035 29.1766 10.2335 28.8448 9.64235 28.2538C9.05113 27.6626 8.71853 26.8604 8.71853 26.0243C8.71859 25.1883 9.05119 24.387 9.64235 23.7958C10.2335 23.2046 11.0348 22.872 11.8709 22.872Z" fill="var(--fill-0, #CD5757)" stroke="var(--stroke-0, #D7CACA)"/>
<g id="Vector_18">
<mask id="path-19-inside-2_0_4" fill="white">
<path d="M11.8709 30.1337C9.60381 30.1337 7.76178 28.2917 7.76178 26.0245C7.76178 23.7574 9.60381 21.9154 11.8709 21.9154C14.1381 21.9154 15.9801 23.7574 15.9801 26.0245C15.9801 28.2917 14.1381 30.1337 11.8709 30.1337ZM11.8709 22.9073C10.1488 22.9073 8.75365 24.3024 8.75365 26.0245C8.75365 27.7467 10.1488 29.1418 11.8709 29.1418C13.5931 29.1418 14.9882 27.7467 14.9882 26.0245C14.9882 24.3024 13.5931 22.9073 11.8709 22.9073Z"/>
</mask>
<path d="M11.8709 30.1337C9.60381 30.1337 7.76178 28.2917 7.76178 26.0245C7.76178 23.7574 9.60381 21.9154 11.8709 21.9154C14.1381 21.9154 15.9801 23.7574 15.9801 26.0245C15.9801 28.2917 14.1381 30.1337 11.8709 30.1337ZM11.8709 22.9073C10.1488 22.9073 8.75365 24.3024 8.75365 26.0245C8.75365 27.7467 10.1488 29.1418 11.8709 29.1418C13.5931 29.1418 14.9882 27.7467 14.9882 26.0245C14.9882 24.3024 13.5931 22.9073 11.8709 22.9073Z" fill="var(--fill-0, white)" fill-opacity="0.25"/>
<path d="M11.8709 30.1337V29.1337C10.1561 29.1337 8.76178 27.7394 8.76178 26.0245H7.76178H6.76178C6.76178 28.844 9.05153 31.1337 11.8709 31.1337V30.1337ZM7.76178 26.0245H8.76178C8.76178 24.3097 10.1561 22.9154 11.8709 22.9154V21.9154V20.9154C9.05153 20.9154 6.76178 23.2051 6.76178 26.0245H7.76178ZM11.8709 21.9154V22.9154C13.5858 22.9154 14.9801 24.3097 14.9801 26.0245H15.9801H16.9801C16.9801 23.2051 14.6903 20.9154 11.8709 20.9154V21.9154ZM15.9801 26.0245H14.9801C14.9801 27.7394 13.5858 29.1337 11.8709 29.1337V30.1337V31.1337C14.6903 31.1337 16.9801 28.844 16.9801 26.0245H15.9801ZM11.8709 22.9073V21.9073C9.59651 21.9073 7.75365 23.7501 7.75365 26.0245H8.75365H9.75365C9.75365 24.8547 10.7011 23.9073 11.8709 23.9073V22.9073ZM8.75365 26.0245H7.75365C7.75365 28.299 9.59651 30.1418 11.8709 30.1418V29.1418V28.1418C10.7011 28.1418 9.75365 27.1944 9.75365 26.0245H8.75365ZM11.8709 29.1418V30.1418C14.1454 30.1418 15.9882 28.299 15.9882 26.0245H14.9882H13.9882C13.9882 27.1944 13.0408 28.1418 11.8709 28.1418V29.1418ZM14.9882 26.0245H15.9882C15.9882 23.7501 14.1454 21.9073 11.8709 21.9073V22.9073V23.9073C13.0408 23.9073 13.9882 24.8547 13.9882 26.0245H14.9882Z" fill="var(--stroke-0, #D7CACA)" mask="url(#path-19-inside-2_0_4)"/>
</g>
<path id="Vector_19" d="M15.9371 12.1425V17.0781H7.80522V12.1425H15.9371Z" fill="var(--fill-0, #322A43)" fill-opacity="0.25" stroke="var(--stroke-0, #D7CACA)"/>
<path id="Vector_20" d="M81.911 11.9142V17.0783H76.5194V11.9142H81.911Z" fill="var(--fill-0, #656767)" fill-opacity="0.25" stroke="var(--stroke-0, #D7CACA)"/>
<g id="Vector_21">
<mask id="path-23-inside-3_0_4" fill="white">
<path d="M81.3529 18.0345H77.0779C76.3654 18.0345 75.7912 17.4411 75.7912 16.7048V12.2873C75.7912 11.551 76.3654 10.9576 77.0779 10.9576H81.3529C82.0654 10.9576 82.6396 11.551 82.6396 12.2873V16.7048C82.6502 17.4411 82.0654 18.0345 81.3529 18.0345ZM77.0779 11.617C76.7163 11.617 76.4292 11.9137 76.4292 12.2873V16.7048C76.4292 17.0785 76.7163 17.3752 77.0779 17.3752H81.3529C81.7144 17.3752 82.0016 17.0785 82.0016 16.7048V12.2873C82.0016 11.9137 81.7144 11.617 81.3529 11.617H77.0779Z"/>
</mask>
<path d="M81.3529 18.0345H77.0779C76.3654 18.0345 75.7912 17.4411 75.7912 16.7048V12.2873C75.7912 11.551 76.3654 10.9576 77.0779 10.9576H81.3529C82.0654 10.9576 82.6396 11.551 82.6396 12.2873V16.7048C82.6502 17.4411 82.0654 18.0345 81.3529 18.0345ZM77.0779 11.617C76.7163 11.617 76.4292 11.9137 76.4292 12.2873V16.7048C76.4292 17.0785 76.7163 17.3752 77.0779 17.3752H81.3529C81.7144 17.3752 82.0016 17.0785 82.0016 16.7048V12.2873C82.0016 11.9137 81.7144 11.617 81.3529 11.617H77.0779Z" fill="var(--fill-0, #3E3A39)" fill-opacity="0.25"/>
<path d="M82.6396 16.7048H81.6396V16.7121L81.6397 16.7193L82.6396 16.7048ZM81.3529 18.0345V17.0345H77.0779V18.0345V19.0345H81.3529V18.0345ZM77.0779 18.0345V17.0345C76.9484 17.0345 76.7912 16.92 76.7912 16.7048H75.7912H74.7912C74.7912 17.9622 75.7825 19.0345 77.0779 19.0345V18.0345ZM75.7912 16.7048H76.7912V12.2873H75.7912H74.7912V16.7048H75.7912ZM75.7912 12.2873H76.7912C76.7912 12.0721 76.9484 11.9576 77.0779 11.9576V10.9576V9.95763C75.7825 9.95763 74.7912 11.0299 74.7912 12.2873H75.7912ZM77.0779 10.9576V11.9576H81.3529V10.9576V9.95763H77.0779V10.9576ZM81.3529 10.9576V11.9576C81.4824 11.9576 81.6396 12.0721 81.6396 12.2873H82.6396H83.6396C83.6396 11.0299 82.6483 9.95763 81.3529 9.95763V10.9576ZM82.6396 12.2873H81.6396V16.7048H82.6396H83.6396V12.2873H82.6396ZM82.6396 16.7048L81.6397 16.7193C81.6425 16.9097 81.4954 17.0345 81.3529 17.0345V18.0345V19.0345C82.6353 19.0345 83.658 17.9725 83.6395 16.6904L82.6396 16.7048ZM77.0779 11.617V10.617C76.1334 10.617 75.4292 11.3926 75.4292 12.2873H76.4292H77.4292C77.4292 12.4348 77.2993 12.617 77.0779 12.617V11.617ZM76.4292 12.2873H75.4292V16.7048H76.4292H77.4292V12.2873H76.4292ZM76.4292 16.7048H75.4292C75.4292 17.5996 76.1334 18.3752 77.0779 18.3752V17.3752V16.3752C77.2993 16.3752 77.4292 16.5574 77.4292 16.7048H76.4292ZM77.0779 17.3752V18.3752H81.3529V17.3752V16.3752H77.0779V17.3752ZM81.3529 17.3752V18.3752C82.2974 18.3752 83.0016 17.5996 83.0016 16.7048H82.0016H81.0016C81.0016 16.5574 81.1315 16.3752 81.3529 16.3752V17.3752ZM82.0016 16.7048H83.0016V12.2873H82.0016H81.0016V16.7048H82.0016ZM82.0016 12.2873H83.0016C83.0016 11.3926 82.2974 10.617 81.3529 10.617V11.617V12.617C81.1315 12.617 81.0016 12.4348 81.0016 12.2873H82.0016ZM81.3529 11.617V10.617H77.0779V11.617V12.617H81.3529V11.617Z" fill="var(--stroke-0, #D7CACA)" mask="url(#path-23-inside-3_0_4)"/>
</g>
</g>
</svg>
