<svg preserveAspectRatio="xMidYMid meet" width="100%" height="100%" overflow="visible" style="display: block;" viewBox="0 0 117 90.5184" fill="none" xmlns="http://www.w3.org/2000/svg">
<g id="Group">
<path id="Vector" d="M73.1857 69.4663C73.1344 69.9982 73.0831 70.545 73.0831 71.1216C73.0831 78.7674 76.3201 85.5788 81.464 90.0181H35.5353C40.6783 85.5789 43.9181 78.7676 43.9181 71.1216C43.9181 70.5455 43.8659 69.9976 43.8146 69.4663H73.1857Z" fill="var(--fill-0, #95A5A6)" fill-opacity="0.5" stroke="var(--stroke-0, white)"/>
<path id="Vector_2" d="M73.1728 69.4664C73.1261 69.9298 73.083 70.5248 73.083 71.1216C73.083 73.106 73.2725 75.0949 73.7148 77.0874H43.2851C43.7275 75.095 43.9179 73.1062 43.9179 71.1216C43.9179 70.5243 43.874 69.9292 43.8271 69.4664H73.1728Z" fill="var(--fill-0, #7F8C8D)" fill-opacity="0.5" stroke="var(--stroke-0, white)"/>
<path id="Vector_3" d="M4.875 0.5H112.124C114.615 0.5 116.499 2.07111 116.499 4.31055V68.9668C116.499 70.8054 114.581 72.7773 112.124 72.7773H4.875C2.41677 72.7773 0.50018 70.8055 0.5 68.9668V4.31055C0.5 2.07103 2.38248 0.5 4.875 0.5Z" fill="var(--fill-0, #BDC3C7)" fill-opacity="0.5" stroke="var(--stroke-0, white)"/>
<path id="Vector_4" d="M111.624 4.8104V64.1561H5.37478V4.8104H111.624Z" fill="var(--fill-0, #66388F)" fill-opacity="0.5" stroke="var(--stroke-0, white)"/>
<path id="Vector_5" d="M111.624 64.1561H11.705L111.624 9.46367V64.1561Z" fill="var(--fill-0, #66388F)" fill-opacity="0.5" stroke="var(--stroke-0, white)"/>
</g>
</svg>
