<svg preserveAspectRatio="xMidYMid meet" width="100%" height="100%" overflow="visible" style="display: block;" viewBox="0 0 105 105.009" fill="none" xmlns="http://www.w3.org/2000/svg">
<g id="Group">
<g id="Group_2">
<g id="Group_3">
<g id="Vector">
<path d="M104.641 18.6055C104.614 18.4335 104.582 18.2628 104.545 18.0924C103.985 15.3312 102.904 12.6549 101.302 10.2181C101.139 9.96789 100.968 9.71787 100.79 9.47114C100.076 8.47396 99.271 7.52026 98.3753 6.6246C97.4778 5.7271 96.5241 4.9221 95.527 4.20774C95.2804 4.02993 95.0321 3.86134 94.78 3.69644L90.5195 3.69746L94.3323 3.68844H94.7743C94.403 3.44089 94.0316 3.21097 93.6425 2.9989C91.5208 1.77878 89.2397 0.930094 86.9057 0.452628C86.7289 0.417147 86.5698 0.38187 86.393 0.364232C81.725 -0.484459 76.8623 0.151957 72.5129 2.25625C72.3361 2.34465 72.1593 2.43304 72.0001 2.52144C71.3106 2.87503 70.6387 3.26409 69.9844 3.70628C69.7369 3.86544 69.4893 4.02459 69.2418 4.20139H72.0001V3.68864H72.5129L79.5928 3.69767L72.5118 3.69685L72.0005 3.69664V4.20795V18.0924V18.6037V32.4881H72.0001V18.6119V18.0992H60.2241C60.1886 18.2583 60.1533 18.4351 60.118 18.6119C59.3401 22.9792 59.8528 27.5588 61.6741 31.6964C61.7801 31.9616 61.904 32.227 62.0277 32.4922H62.0297C62.1105 32.6627 62.1948 32.8329 62.2826 32.9996C63.3251 35.0213 64.6958 36.9176 66.3893 38.6111C68.0846 40.3064 69.9791 41.6752 72.0007 42.7177C72.1693 42.8065 72.3397 42.8935 72.512 42.9751C76.8543 45.08 81.7315 45.7146 86.3946 44.877C86.5685 44.8481 86.7388 44.8157 86.9053 44.7794V44.7851C89.6686 44.2281 92.3539 43.1472 94.7941 41.5315C95.4628 41.0858 96.109 40.6177 96.7329 40.0829C97.0449 39.8378 97.3347 39.5925 97.6243 39.3252C97.8807 39.0912 98.137 38.8572 98.3821 38.6121C98.6941 38.3002 98.9839 37.988 99.2735 37.6539C99.8194 37.0411 100.332 36.4172 100.789 35.7596V32.9978H100.79V35.7611C100.966 35.5164 101.137 35.2696 101.302 35.0213C101.731 34.3631 102.127 33.6888 102.482 32.9998C102.571 32.8312 102.656 32.659 102.738 32.4867C104.846 28.1442 105.481 23.267 104.641 18.6055Z" fill="var(--fill-0, #8B8B8B)" fill-opacity="0.5"/>
<path d="M72.7307 2.70613C76.984 0.648448 81.7394 0.0266371 86.304 0.856525L86.3235 0.859454L86.343 0.861407C86.4884 0.875911 86.617 0.903559 86.8059 0.941486V0.942462C88.9313 1.3773 91.0112 2.12739 92.9622 3.19149L90.5188 3.19734L90.5198 3.5118V4.19637L90.5208 4.19734V4.19637H94.6272C94.8324 4.33233 95.0351 4.4694 95.2346 4.61336L95.2356 4.61434C96.2109 5.31299 97.1438 6.10065 98.0217 6.97859C98.8977 7.85461 99.6854 8.78755 100.384 9.76277H100.385C100.558 10.0028 100.724 10.2471 100.883 10.4913L100.884 10.4932C102.451 12.8754 103.507 15.4917 104.055 18.1915L104.056 18.1964C104.091 18.3598 104.121 18.5215 104.147 18.6827V18.6837L104.149 18.6944C104.97 23.2532 104.35 28.023 102.288 32.2686L102.037 32.7706C101.806 33.2196 101.556 33.662 101.29 34.0987V32.4981H100.288V35.5977C99.8688 36.1884 99.402 36.7575 98.8997 37.3214L98.8958 37.3263C98.6136 37.6518 98.3318 37.9557 98.0286 38.2589C97.7929 38.4945 97.5451 38.7209 97.2874 38.9561L97.2854 38.9581C97.0064 39.2156 96.7265 39.452 96.4241 39.6895L96.4153 39.6964L96.4075 39.7032C95.804 40.2206 95.1755 40.6759 94.5178 41.1143C92.3098 42.5764 89.8958 43.5895 87.4055 44.1641V44.1583L86.7991 44.2911C86.6413 44.3255 86.4791 44.3562 86.3128 44.3839L86.3059 44.3848C81.7453 45.204 76.9753 44.5835 72.7298 42.5255L72.7258 42.5235L72.2337 42.2755L72.2298 42.2735L71.8606 42.0782C70.0229 41.0855 68.2973 39.8127 66.7424 38.2579C65.0857 36.6012 63.7458 34.7466 62.7268 32.7706L62.7249 32.7667C62.641 32.6074 62.56 32.4436 62.4817 32.2784L62.387 32.0782C62.2973 31.8841 62.2123 31.6968 62.138 31.5108L62.1321 31.4952L61.969 31.1143C60.3229 27.1732 59.8742 22.8449 60.6087 18.71C60.6161 18.6726 60.6247 18.6354 60.6321 18.5987H71.5003V32.9884H72.5003V4.19637H79.5911L79.5921 4.19734V4.19637L79.593 4.19734V3.19734L72.5139 3.18856H71.8089C71.9479 3.1133 72.087 3.0381 72.2278 2.9659L72.2356 2.96297L72.2424 2.95809C72.3888 2.8768 72.5539 2.79457 72.7307 2.70613ZM71.5003 3.70125H70.9202C71.112 3.58377 71.305 3.46959 71.5003 3.35945V3.70125Z" stroke="var(--stroke-0, white)" stroke-opacity="0.5"/>
</g>
<g id="Vector_2">
<path d="M72.0002 18.0815V4.20117L69.2419 4.2188C68.5876 4.67863 67.9512 5.17353 67.3322 5.72175C67.2438 5.81015 67.1554 5.88091 67.067 5.9693C66.8371 6.18158 66.6072 6.39365 66.3951 6.62356C66.1476 6.87111 65.9 7.11867 65.6701 7.36622C65.5817 7.47225 65.4933 7.56065 65.4049 7.66669C65.2281 7.86112 65.069 8.05555 64.9098 8.26782L63.4776 10.213C61.851 12.653 60.7724 15.3406 60.2242 18.0989L71.346 18.0813H72.0002V18.0815Z" fill="var(--fill-0, #8B8B8B)" fill-opacity="0.5"/>
<path d="M71.5005 17.581H71.3453L60.8423 17.5967C61.4091 15.1142 62.4201 12.7025 63.8882 10.498L65.3101 8.56738C65.4607 8.36655 65.6099 8.18443 65.775 8.00292L65.7886 7.9873C65.8249 7.94381 65.8626 7.90217 65.9078 7.85253C65.9463 7.81019 65.9906 7.76044 66.0367 7.70605C66.259 7.46664 66.5 7.22614 66.7486 6.97753L66.7554 6.96972L66.7623 6.96288C66.9583 6.75034 67.1734 6.55151 67.4058 6.33691L67.4136 6.33007L67.4205 6.32324C67.454 6.28975 67.4883 6.25769 67.5338 6.21679C67.5711 6.18318 67.6163 6.14189 67.6636 6.0957C68.2276 5.59617 68.8081 5.14194 69.4048 4.71679L71.5005 4.70409V17.581Z" stroke="var(--stroke-0, white)" stroke-opacity="0.5"/>
</g>
</g>
<g id="Vector_3">
<path d="M14.7466 99.4709L12.7662 101.451V101.469L9.6719 104.546L9.53059 104.687C9.0886 105.111 8.38123 105.111 7.93924 104.687L0.318259 97.0663C-0.106086 96.6243 -0.106086 95.917 0.318259 95.475L0.459776 95.3337L3.55407 92.257L5.53448 90.259C5.97647 89.8344 6.68364 89.8344 7.12583 90.259L10.9449 94.0781L14.7464 97.8797C15.171 98.3217 15.171 99.0289 14.7466 99.4709Z" fill="var(--fill-0, #383838)" fill-opacity="0.5"/>
<path d="M5.88086 90.6193C6.1292 90.3809 6.53058 90.3808 6.7793 90.6193L10.5918 94.4318L14.3887 98.2296C14.6242 98.4783 14.6223 98.8767 14.3848 99.1241L12.4131 101.098L12.2666 101.244V101.261L9.31934 104.191L9.31836 104.192L9.18457 104.326C8.93715 104.564 8.5378 104.565 8.28906 104.329L0.677734 96.7189C0.441646 96.4717 0.440601 96.0737 0.674805 95.8253L0.8125 95.6886L3.90625 92.6114L3.90918 92.6085L5.88086 90.6193Z" stroke="var(--stroke-0, white)" stroke-opacity="0.5"/>
</g>
<g id="Vector_4">
<path d="M77.8352 52.0482L32.782 94.131L21.837 83.186L10.8742 72.2233L52.957 27.17L53.0454 27.2583L77.8352 52.0482Z" fill="var(--fill-0, #66388F)" fill-opacity="0.5"/>
<path d="M77.1154 52.0352L32.7932 93.4346L22.1906 82.8321L11.5685 72.211L52.968 27.8887L77.1154 52.0352Z" stroke="var(--stroke-0, white)" stroke-opacity="0.5"/>
</g>
<g id="Vector_5">
<path d="M46.4371 63.4882L41.5158 58.5669L52.0168 47.4027L57.6015 52.9875L46.4371 63.4882Z" fill="var(--fill-0, #FCE5E5)" fill-opacity="0.5"/>
<path d="M56.883 52.976L46.4474 62.7924L42.2121 58.556L52.0275 48.1205L56.883 52.976Z" stroke="var(--stroke-0, white)" stroke-opacity="0.5"/>
</g>
<g id="Vector_6">
<path d="M46.6633 54.8521L52.0397 48.9026L56.1017 52.9646L50.1522 58.341L46.6633 54.8521Z" fill="var(--fill-0, #E69595)" fill-opacity="0.5"/>
<path d="M55.3762 52.9456L50.1692 57.6507L47.3528 54.8343L52.0569 49.6273L55.3762 52.9456Z" stroke="var(--stroke-0, white)" stroke-opacity="0.5"/>
</g>
<g id="Vector_7">
<path d="M32.782 94.131L14.6759 103.379L8.15136 96.854L3.55411 92.2568L1.62662 90.3295L10.8742 72.2234L21.837 83.186L32.782 94.131Z" fill="var(--fill-0, #412857)" fill-opacity="0.5"/>
<path d="M21.4831 83.5398L31.942 93.9978L14.7711 102.767L8.50454 96.5007L3.90787 91.903L2.23697 90.2331L11.0065 73.0622L21.4831 83.5398Z" stroke="var(--stroke-0, white)" stroke-opacity="0.5"/>
</g>
<g id="Vector_8">
<path d="M99.4602 38.7163L98.134 40.0424C98.0456 40.1485 97.8688 40.1485 97.7804 40.0424L76.3501 18.6119L75.8373 18.0991L72.5131 14.7751L64.9629 7.22492C64.8569 7.13652 64.8569 6.95973 64.9629 6.87133L66.2891 5.54518C66.3775 5.43914 66.5542 5.43914 66.6426 5.54518L67.067 5.96952L72.0002 10.9029L72.5129 11.4157L79.7094 18.6121L83.0512 21.9539L86.393 25.2781L86.9058 25.7909L93.6073 32.4922L94.1201 33.0052L99.018 37.9029V37.9205H99.0356L99.46 38.3449C99.5662 38.4509 99.5662 38.6279 99.4602 38.7163Z" fill="var(--fill-0, white)" fill-opacity="0.5"/>
<path d="M82.6988 22.3084L86.0406 25.6326L93.7662 33.3582V33.3592L98.5181 38.1102V38.4207H98.8287L98.939 38.5311L97.9576 39.5125L65.4928 7.04768L66.4654 6.07502L82.6988 22.3084Z" stroke="var(--stroke-0, white)" stroke-opacity="0.5"/>
</g>
<g id="Vector_9">
<path d="M79.4974 50.2271L77.7646 51.9776L76.2616 53.4629C76.067 53.6576 75.7487 53.6576 75.5542 53.4629L63.5483 41.457L51.5423 29.451C51.3479 29.2566 51.3479 28.9381 51.5423 28.7437L53.0453 27.2584L54.7781 25.5079C54.9726 25.3134 55.2909 25.3134 55.4855 25.5079L62.4699 32.4922L62.9826 33.0052L72.0003 42.0229L72.5131 42.5356L73.2734 43.3135L73.3086 43.3312L79.4972 49.5198C79.6921 49.7142 79.6921 50.0327 79.4974 50.2271Z" fill="var(--fill-0, #FCEDC3)" fill-opacity="0.5"/>
<path d="M62.1162 32.8454L62.6289 33.3591L72.1592 42.8894L72.916 43.6628L72.9746 43.7234L73.0127 43.7419L79.1436 49.8737L79.1416 49.8757L77.4131 51.6218L75.9102 53.1071L75.9082 53.1091L63.9014 41.1032L51.8955 29.0974L53.3965 27.614L53.4004 27.6101L55.1319 25.8611L62.1162 32.8454Z" stroke="var(--stroke-0, white)" stroke-opacity="0.5"/>
</g>
</g>
<g id="Vector_10" opacity="0.1">
<path d="M99.4592 38.353L99.026 37.9199C99.1068 37.83 99.193 37.7466 99.2736 37.6537C99.8195 37.0408 100.332 36.4169 100.789 35.7594V32.9976H100.791V35.7608C100.966 35.5161 101.137 35.2696 101.302 35.021C101.731 34.3629 102.127 33.6885 102.482 32.9994C102.571 32.8308 102.656 32.6585 102.738 32.4862C104.846 28.1439 105.481 23.2667 104.641 18.6053C104.614 18.433 104.582 18.2626 104.545 18.0921C103.985 15.3309 102.904 12.6546 101.302 10.2181C101.138 9.96786 100.968 9.71764 100.79 9.47111C100.076 8.47455 99.2721 7.52167 98.3771 6.62663L4.13167 100.872L7.94257 104.683C8.37738 105.118 9.08906 105.118 9.52387 104.683L12.7597 101.448L14.6818 103.37L32.7761 94.1379L77.827 52.0414L77.7524 51.9668L79.4953 50.2238C79.6877 50.0315 79.6877 49.7168 79.4953 49.5245L73.2811 43.3104C77.4269 45.1317 82.0028 45.666 86.3947 44.877C86.5687 44.848 86.7389 44.8154 86.9054 44.7793V44.7851C89.6687 44.228 92.354 43.1472 94.7943 41.5314L94.7998 41.537C95.4682 41.0913 96.1147 40.6233 96.7386 40.0884L96.733 40.0828C96.9377 39.922 97.1258 39.753 97.3176 39.5861L97.7719 40.0404C97.8734 40.1419 98.0393 40.1419 98.1406 40.0404L99.4592 38.7218C99.5607 38.6205 99.5607 38.4546 99.4592 38.353Z" fill="var(--fill-0, #040000)" fill-opacity="0.5"/>
<path d="M98.3719 7.33756C99.1087 8.10803 99.7794 8.91898 100.384 9.76237L100.385 9.76335C100.557 10.0027 100.723 10.2464 100.883 10.4909L100.884 10.4928C102.451 12.8748 103.508 15.4912 104.055 18.1911L104.056 18.1969C104.091 18.3603 104.122 18.5218 104.147 18.6833L104.149 18.694C104.97 23.2529 104.349 28.0228 102.288 32.2682L102.286 32.2721C102.207 32.4389 102.125 32.6051 102.04 32.7663L102.038 32.7702C101.807 33.2189 101.556 33.6609 101.291 34.0973V32.4977H100.289V35.5973C99.9816 36.03 99.6497 36.4513 99.2957 36.8669L98.9002 37.321L98.8963 37.3258C98.8645 37.3625 98.8294 37.3996 98.7879 37.443C98.7488 37.484 98.7006 37.5339 98.6541 37.5856L98.3367 37.9381L98.6727 38.2731L98.9354 38.5368L97.9559 39.5173L97.3416 38.903L96.9891 39.2087C96.7895 39.3824 96.6163 39.5395 96.4246 39.6901L95.9813 40.0378L95.9959 40.0524C95.627 40.3472 95.2486 40.623 94.8602 40.8903L94.8592 40.8893L94.5184 41.1149C92.3101 42.5771 89.8956 43.5901 87.4051 44.1647V44.1598L86.7996 44.2907C86.6411 44.325 86.4783 44.3559 86.3123 44.3835L86.3065 44.3844C82.0124 45.1559 77.5372 44.6336 73.4823 42.8522L72.9276 43.6637L79.1375 49.8737L77.3992 51.613L77.0457 51.9665L77.1073 52.028L32.4852 93.7233L14.7782 102.759L12.7596 100.741L9.17073 104.33C8.93119 104.569 8.53527 104.569 8.29573 104.33L4.83772 100.872L98.3719 7.33756Z" stroke="var(--stroke-0, white)" stroke-opacity="0.5"/>
</g>
</g>
</svg>
