<svg preserveAspectRatio="none" width="100%" height="100%" overflow="visible" style="display: block;" viewBox="0 0 26 26.9286" fill="none" xmlns="http://www.w3.org/2000/svg">
<path id="Vector" d="M26 2.78574V0.928615H24.4524V0H22.5952V0.928562H3.40473V0H1.5476V0.928562H0V2.78569H1.5476V25.0714H0V26.9286H26V25.0714H24.4524V2.78574H26ZM9.5952 2.78574H16.4047V5.98756C15.3642 5.52151 14.2119 5.26191 12.9999 5.26191C11.788 5.26191 10.6357 5.52151 9.59514 5.98756L9.5952 2.78574ZM13 7.11903C16.5841 7.11903 19.5 10.0349 19.5 13.619C19.5 17.2031 16.5841 20.1191 13 20.1191C9.4159 20.1191 6.49999 17.2031 6.49999 13.6191C6.49999 10.035 9.4159 7.11903 13 7.11903ZM22.5952 25.0714H3.40473V2.78574H7.73807V7.13165C5.85097 8.66521 4.64281 11.0035 4.64281 13.6191C4.64281 18.2273 8.39183 21.9762 13 21.9762C17.6081 21.9762 21.3571 18.2273 21.3571 13.6191C21.3571 11.0035 20.149 8.66521 18.2619 7.13165V2.78574H22.5952V25.0714Z" fill="var(--fill-0, white)"/>
</svg>
