<svg preserveAspectRatio="none" width="100%" height="100%" overflow="visible" style="display: block;" viewBox="0 0 47 70" fill="none" xmlns="http://www.w3.org/2000/svg">
<g id="Group 84">
<path id="Vector" d="M1.80215 70H45.1979C46.183 70 47 69.1932 47 68.2203V6.26441C47 5.29153 46.183 4.48475 45.1979 4.48475H39.0465V1.77966C39.0465 0.80678 38.2295 0 37.2444 0C36.2592 0 35.4422 0.80678 35.4422 1.77966V4.48475H25.3021V1.77966C25.3021 0.80678 24.4852 0 23.5 0C22.5148 0 21.6979 0.80678 21.6979 1.77966V4.48475H11.5578V1.77966C11.5578 0.80678 10.7408 0 9.75562 0C8.77045 0 7.95348 0.80678 7.95348 1.77966V4.48475H1.80215C0.816973 4.48475 0 5.29153 0 6.26441V68.2203C0 69.1932 0.816973 70 1.80215 70ZM3.60429 8.04407H7.95348V10.7492C7.95348 11.722 8.77045 12.5288 9.75562 12.5288C10.7408 12.5288 11.5578 11.722 11.5578 10.7492V8.04407H21.6979V10.7492C21.6979 11.722 22.5148 12.5288 23.5 12.5288C24.4852 12.5288 25.3021 11.722 25.3021 10.7492V8.04407H35.4422V10.7492C35.4422 11.722 36.2592 12.5288 37.2444 12.5288C38.2295 12.5288 39.0465 11.722 39.0465 10.7492V8.04407H43.3957V66.4407H3.60429V8.04407Z" fill="var(--fill-0, #7C549F)"/>
<path id="Vector_2" d="M25.5666 19.956H9.77977C8.7946 19.956 7.97762 20.7628 7.97762 21.7357C7.97762 22.7085 8.7946 23.5153 9.77977 23.5153H25.5666C26.5518 23.5153 27.3687 22.7085 27.3687 21.7357C27.3687 20.7628 26.5518 19.956 25.5666 19.956Z" fill="var(--fill-0, #66388F)"/>
<path id="Vector_3" d="M25.5666 35.4507H9.77977C8.7946 35.4507 7.97762 36.2575 7.97762 37.2304C7.97762 38.2033 8.7946 39.0101 9.77977 39.0101H25.5666C26.5518 39.0101 27.3687 38.2033 27.3687 37.2304C27.3687 36.2575 26.5518 35.4507 25.5666 35.4507Z" fill="var(--fill-0, #66388F)"/>
<path id="Vector_4" d="M25.5666 50.9695H9.77977C8.7946 50.9695 7.97762 51.7762 7.97762 52.7491C7.97762 53.722 8.7946 54.5288 9.77977 54.5288H25.5666C26.5518 54.5288 27.3687 53.722 27.3687 52.7491C27.3687 51.7762 26.5518 50.9695 25.5666 50.9695Z" fill="var(--fill-0, #66388F)"/>
<path id="Vector_5" d="M9.75572 30.8949H18.4301C19.4152 30.8949 20.2322 30.0882 20.2322 29.1153C20.2322 28.1424 19.4152 27.3356 18.4301 27.3356H9.75572C8.77055 27.3356 7.95358 28.1424 7.95358 29.1153C7.95358 30.0882 8.77055 30.8949 9.75572 30.8949Z" fill="var(--fill-0, #66388F)"/>
<path id="Vector_6" d="M9.75572 46.8644H18.4301C19.4152 46.8644 20.2322 46.0576 20.2322 45.0847C20.2322 44.1119 19.4152 43.3051 18.4301 43.3051H9.75572C8.77055 43.3051 7.95358 44.1119 7.95358 45.0847C7.95358 46.0576 8.77055 46.8644 9.75572 46.8644Z" fill="var(--fill-0, #66388F)"/>
<path id="Vector_7" d="M18.4301 58.2306H9.75572C8.77055 58.2306 7.95358 59.0374 7.95358 60.0102C7.95358 60.9831 8.77055 61.7899 9.75572 61.7899H18.4301C19.4152 61.7899 20.2322 60.9831 20.2322 60.0102C20.2322 59.0374 19.4152 58.2306 18.4301 58.2306Z" fill="var(--fill-0, #66388F)"/>
</g>
</svg>
