<svg preserveAspectRatio="none" width="100%" height="100%" overflow="visible" style="display: block;" viewBox="0 0 44 45" fill="none" xmlns="http://www.w3.org/2000/svg">
<path id="Vector" d="M42.1657 20.6245C41.6793 20.6245 41.2127 20.822 40.8687 21.1736C40.5247 21.5253 40.3315 22.0022 40.3315 22.4994C40.3464 26.8592 38.8795 31.0889 36.1816 34.4657C33.4836 37.8424 29.7221 40.1565 25.5399 41.0124C21.3577 41.8683 17.0146 41.2128 13.2528 39.1581C9.49102 37.1034 6.54414 33.777 4.91586 29.7474C3.28758 25.7178 3.07899 21.2352 4.32575 17.0658C5.57251 12.8965 8.19721 9.29912 11.7512 6.88871C15.3052 4.4783 19.5679 3.40445 23.8107 3.85072C28.0534 4.29699 32.0128 6.23567 35.0122 9.33539C34.9518 9.35221 34.8906 9.36536 34.8287 9.37476H29.326C28.8395 9.37476 28.373 9.5723 28.029 9.92393C27.685 10.2755 27.4917 10.7524 27.4917 11.2497C27.4917 11.747 27.685 12.2239 28.029 12.5755C28.373 12.9271 28.8395 13.1247 29.326 13.1247H34.8287C36.2882 13.1247 37.6878 12.5321 38.7198 11.4772C39.7517 10.4223 40.3315 8.99162 40.3315 7.49981V1.87495C40.3315 1.37768 40.1382 0.900783 39.7943 0.549161C39.4503 0.197539 38.9837 0 38.4972 0C38.0108 0 37.5442 0.197539 37.2002 0.549161C36.8562 0.900783 36.663 1.37768 36.663 1.87495V5.74673C32.9075 2.31469 28.1134 0.304054 23.0819 0.0508161C18.0505 -0.202422 13.0864 1.31707 9.01916 4.35539C4.95195 7.39371 2.02802 11.7668 0.735955 16.7439C-0.556108 21.721 -0.13803 27.0006 1.92033 31.7005C3.97868 36.4004 7.55263 40.2358 12.0449 42.5659C16.5373 44.896 21.6758 45.5796 26.6019 44.5025C31.5281 43.4253 35.9433 40.6527 39.11 36.6479C42.2766 32.6431 44.0028 27.6488 44 22.4994C44 22.0022 43.8068 21.5253 43.4628 21.1736C43.1188 20.822 42.6522 20.6245 42.1657 20.6245ZM21.989 11.2497C21.5025 11.2497 21.036 11.4473 20.692 11.7989C20.348 12.1505 20.1547 12.6274 20.1547 13.1247V22.4994C20.1549 22.9967 20.3482 23.4735 20.6922 23.825L26.1949 29.4499C26.5409 29.7914 27.0042 29.9804 27.4851 29.9761C27.9661 29.9719 28.4261 29.7747 28.7662 29.427C29.1063 29.0794 29.2992 28.6091 29.3034 28.1175C29.3076 27.6259 29.1227 27.1523 28.7886 26.7987L23.8233 21.7232V13.1247C23.8233 12.6274 23.63 12.1505 23.286 11.7989C22.942 11.4473 22.4755 11.2497 21.989 11.2497Z" fill="var(--fill-0, #66388F)" fill-opacity="0.86"/>
</svg>
