<svg preserveAspectRatio="none" width="100%" height="100%" overflow="visible" style="display: block;" viewBox="0 0 42.4828 44.0001" fill="none" xmlns="http://www.w3.org/2000/svg">
<g id="Group 86">
<path id="Vector" d="M21.2415 14.6667C17.0585 14.6667 13.6553 18.0699 13.6553 22.2529C13.6553 26.4359 17.0585 29.8391 21.2415 29.8391C25.4245 29.8391 28.8277 26.4359 28.8277 22.2529C28.8277 18.0698 25.4245 14.6667 21.2415 14.6667ZM21.2415 26.8046C18.7317 26.8046 16.6897 24.7628 16.6897 22.2528C16.6897 19.7428 18.7316 17.701 21.2415 17.701C23.7514 17.701 25.7933 19.7428 25.7933 22.2528C25.7933 24.7628 23.7514 26.8046 21.2415 26.8046Z" fill="var(--fill-0, #7C549F)"/>
<path id="Vector_2" d="M21.2415 23.7701C22.0794 23.7701 22.7587 23.0908 22.7587 22.2529C22.7587 21.4149 22.0794 20.7356 21.2415 20.7356C20.4036 20.7356 19.7243 21.4149 19.7243 22.2529C19.7243 23.0908 20.4036 23.7701 21.2415 23.7701Z" fill="var(--fill-0, #7C549F)"/>
<path id="Vector_3" d="M42.4827 4.55188V1.51743H39.954V0.000119328H36.9195V1.51735H5.56316V0.000119328H2.52871V1.51735H0V4.5518H2.52871V40.9657H0V44.0001H42.4828V40.9657H39.9541V4.55188H42.4827ZM15.6781 4.55188H26.8045V9.7835C25.1044 9.02201 23.2215 8.59782 21.2413 8.59782C19.261 8.59782 17.3782 9.02201 15.678 9.7835L15.6781 4.55188ZM21.2413 11.6323C27.0976 11.6323 31.862 16.3966 31.862 22.2529C31.862 28.1092 27.0976 32.8737 21.2413 32.8737C15.3851 32.8737 10.6207 28.1092 10.6207 22.253C10.6207 16.3968 15.3851 11.6323 21.2413 11.6323ZM36.9195 40.9657H5.56316V4.55188H12.6436V11.6529C9.5602 14.1587 7.58613 17.9794 7.58613 22.253C7.58613 29.7826 13.7118 35.9082 21.2413 35.9082C28.7708 35.9082 34.8966 29.7826 34.8966 22.253C34.8966 17.9794 32.9225 14.1587 29.839 11.6529V4.55188H36.9195V40.9657Z" fill="var(--fill-0, #7C549F)"/>
</g>
</svg>
