<svg preserveAspectRatio="none" width="100%" height="100%" overflow="visible" style="display: block;" viewBox="0 0 21 21" fill="none" xmlns="http://www.w3.org/2000/svg">
<path id="Vector" fill-rule="evenodd" clip-rule="evenodd" d="M13.1925 1.33955C14.9785 -0.446518 17.8744 -0.446518 19.6604 1.33955C21.4465 3.12563 21.4465 6.02141 19.6604 7.80749L10.3958 17.0722C9.86646 17.6015 9.55478 17.9132 9.20814 18.1835C8.79966 18.5022 8.35754 18.7754 7.88979 18.9983C7.49294 19.1874 7.07487 19.3268 6.36467 19.5635L3.11103 20.6481L2.3276 20.9092C1.69218 21.121 0.991608 20.9556 0.517985 20.482C0.0443633 20.0084 -0.121019 19.3078 0.0907977 18.6724L1.43647 14.6353C1.67319 13.9251 1.81252 13.5071 2.00166 13.1102C2.22458 12.6425 2.49779 12.2004 2.81647 11.7918C3.08685 11.4452 3.39847 11.1336 3.92784 10.6042L13.1925 1.33955ZM3.07723 19.115L5.85267 18.1898C6.62538 17.9322 6.95369 17.8215 7.25947 17.6757C7.63116 17.4986 7.98244 17.2815 8.30711 17.0282C8.57423 16.8199 8.82008 16.5758 9.39606 15.9998L16.7895 8.60647C16.0192 8.33475 15.0268 7.83116 14.0978 6.90216C13.1688 5.97315 12.6652 4.98079 12.3936 4.21049L5.00011 11.6039C4.42416 12.1799 4.18005 12.4257 3.97172 12.6929C3.71849 13.0175 3.50138 13.3688 3.32425 13.7405C3.17852 14.0462 3.06775 14.3746 2.81017 15.1473L1.88503 17.9227L3.07723 19.115ZM13.582 3.02208C13.6154 3.19297 13.6718 3.42528 13.766 3.69684C13.9782 4.30825 14.3788 5.11118 15.1338 5.86617C15.8888 6.62115 16.6917 7.02183 17.3031 7.23395C17.5747 7.32817 17.807 7.38462 17.9779 7.41803L18.6244 6.77148C19.8383 5.55758 19.8383 3.58945 18.6244 2.37555C17.4105 1.16164 15.4424 1.16164 14.2285 2.37555L13.582 3.02208Z" fill="var(--fill-0, white)"/>
</svg>
