<svg preserveAspectRatio="none" width="100%" height="100%" overflow="visible" style="display: block;" viewBox="0 0 26.2681 28.0117" fill="none" xmlns="http://www.w3.org/2000/svg">
<g id="Group 88">
<path id="Vector" d="M7.5062 21.822L2.30383 16.6196C0.565388 14.8812 0.565388 13.1557 2.30383 11.4173L10.9701 2.751L20.5056 12.2865C20.9856 12.7665 20.9856 13.5449 20.5056 14.025L12.6955 21.835C10.9831 23.5475 9.24465 23.5475 7.5062 21.822Z" stroke="var(--stroke-0, white)" stroke-width="2" stroke-miterlimit="10" stroke-linecap="round" stroke-linejoin="round"/>
<path id="Vector_2" d="M9.24504 1L10.9835 2.73839" stroke="var(--stroke-0, white)" stroke-width="2" stroke-miterlimit="10" stroke-linecap="round" stroke-linejoin="round"/>
<path id="Vector_3" opacity="0.4" d="M1.09882 13.9341L20.7147 13.078" stroke="var(--stroke-0, white)" stroke-width="2" stroke-miterlimit="10" stroke-linecap="round" stroke-linejoin="round"/>
<path id="Vector_4" d="M2.30494 27.0117H19.1705" stroke="var(--stroke-0, white)" stroke-width="2" stroke-miterlimit="10" stroke-linecap="round" stroke-linejoin="round"/>
<path id="Vector_5" opacity="0.4" d="M22.868 17.9302C22.868 17.9302 20.468 20.5379 20.468 22.1336C20.468 23.4569 21.5448 24.5337 22.868 24.5337C24.1913 24.5337 25.2681 23.4569 25.2681 22.1336C25.2681 20.5379 22.868 17.9302 22.868 17.9302Z" stroke="var(--stroke-0, white)" stroke-width="2" stroke-linecap="round" stroke-linejoin="round"/>
</g>
</svg>
