<svg preserveAspectRatio="none" width="100%" height="100%" overflow="visible" style="display: block;" viewBox="0 0 49 37" fill="none" xmlns="http://www.w3.org/2000/svg">
<g id="Frame">
<rect width="49" height="37" rx="18.5" fill="var(--fill-0, #513074)" fill-opacity="0.78"/>
<path id="Vector" d="M25.091 25.9928C25.4665 26.3683 26.0754 26.3683 26.4509 25.9928C26.8264 25.6173 26.8264 25.0085 26.4509 24.633L25.091 25.9928ZM17.367 15.5491C16.9915 15.1736 16.3827 15.1736 16.0072 15.5491C15.6317 15.9246 15.6317 16.5335 16.0072 16.909L17.367 15.5491ZM28.7218 23.7218C29.0973 23.3463 29.0973 22.7376 28.7218 22.3621C28.3463 21.9865 27.7376 21.9865 27.3621 22.3621L28.7218 23.7218ZM31.7918 17.9306C31.4178 18.3076 31.4201 18.9164 31.7972 19.2904C32.1741 19.6645 32.7829 19.6621 33.1569 19.2851L31.7918 17.9306ZM15.8531 18.4229L23.4229 10.8531L22.0631 9.49324L14.4932 17.0631L15.8531 18.4229ZM15.8531 26.1469C14.7633 25.0572 14.0158 24.3068 13.5289 23.6686C13.0589 23.0526 12.9231 22.6553 12.9231 22.2849H11C11 23.2449 11.3995 24.0479 12 24.8351C12.5836 25.6 13.4419 26.4554 14.4932 27.5068L15.8531 26.1469ZM14.4932 17.0631C13.4419 18.1145 12.5836 18.9699 12 19.7347C11.3995 20.5218 11 21.325 11 22.2849H12.9231C12.9231 21.9145 13.0589 21.5173 13.5289 20.9013C14.0158 20.2631 14.7633 19.5127 15.8531 18.4229L14.4932 17.0631ZM23.5771 26.1469C22.4873 27.2367 21.7369 27.9842 21.0987 28.4712C20.4827 28.9412 20.0854 29.0769 19.7151 29.0769V31C20.675 31 21.4782 30.6005 22.2653 30C23.0301 29.4164 23.8856 28.5581 24.9369 27.5068L23.5771 26.1469ZM14.4932 27.5068C15.5446 28.5581 16.4 29.4164 17.1649 30C17.952 30.6005 18.7552 31 19.7151 31V29.0769C19.3447 29.0769 18.9474 28.9412 18.3314 28.4712C17.6932 27.9842 16.9428 27.2367 15.8531 26.1469L14.4932 27.5068ZM31.1469 10.8531C32.2367 11.9428 32.9842 12.6932 33.4712 13.3314C33.9412 13.9474 34.0769 14.3447 34.0769 14.7151H36C36 13.7552 35.6005 12.952 35 12.1649C34.4164 11.4 33.5581 10.5446 32.5068 9.49324L31.1469 10.8531ZM32.5068 9.49324C31.4554 8.44192 30.6 7.5836 29.8351 7C29.0479 6.39947 28.2449 6 27.2849 6V7.92308C27.6553 7.92308 28.0526 8.05887 28.6686 8.52888C29.3068 9.01583 30.0572 9.76331 31.1469 10.8531L32.5068 9.49324ZM23.4229 10.8531C24.5127 9.76331 25.2631 9.01583 25.9013 8.52888C26.5173 8.05887 26.9145 7.92308 27.2849 7.92308V6C26.325 6 25.5218 6.39947 24.7347 7C23.9699 7.5836 23.1145 8.44192 22.0631 9.49324L23.4229 10.8531ZM26.4509 24.633L17.367 15.5491L16.0072 16.909L25.091 25.9928L26.4509 24.633ZM27.3621 22.3621L23.5771 26.1469L24.9369 27.5068L28.7218 23.7218L27.3621 22.3621ZM33.1569 19.2851C34.0041 18.4313 34.7031 17.6999 35.1846 17.0133C35.6824 16.3037 36 15.5707 36 14.7151H34.0769C34.0769 15.0481 33.9672 15.4001 33.6103 15.909C33.2371 16.441 32.654 17.0617 31.7918 17.9306L33.1569 19.2851Z" fill="var(--fill-0, white)"/>
<g id="Vector_2">
<path d="M20 30H37Z" fill="var(--fill-0, white)"/>
<path d="M20 30H37" stroke="var(--stroke-0, white)" stroke-width="2" stroke-linecap="round"/>
</g>
</g>
</svg>
