<svg preserveAspectRatio="none" width="100%" height="100%" overflow="visible" style="display: block;" viewBox="0 0 80.343 80.3433" fill="none" xmlns="http://www.w3.org/2000/svg">
<g id="Vector">
<path d="M78.0502 37.0508L60.6708 19.6716L43.292 2.29271L41.5851 0.585791C40.8041 -0.19524 39.5378 -0.195267 38.7567 0.58573L37.0499 2.29243L19.6714 19.6716L2.29258 37.0508L0.585844 38.7574C-0.195257 39.5385 -0.195285 40.8048 0.585782 41.5859L2.29258 43.2927L19.6714 60.6719L37.0502 78.0508L38.7571 79.7576C39.5381 80.5386 40.8044 80.5386 41.5854 79.7576L43.2923 78.0508L60.6711 60.6719L78.0505 43.2927L79.7572 41.586C80.5383 40.8049 80.5382 39.5384 79.7571 38.7574L78.0502 37.0508ZM40.171 40.1716L24.2064 56.1366C23.4253 56.9176 22.159 56.9176 21.3779 56.1366L6.82753 41.5858C6.0465 40.8048 6.0465 39.5385 6.82753 38.7574L21.3779 24.2067C22.159 23.4256 23.4253 23.4256 24.2064 24.2067L40.171 40.1716L56.1356 24.2067C56.9166 23.4256 58.1829 23.4256 58.964 24.2066L73.5149 38.7574C74.2959 39.5385 74.2959 40.8048 73.5149 41.5858L58.964 56.1366C58.1829 56.9177 56.9166 56.9176 56.1356 56.1366L40.171 40.1716Z" fill="var(--fill-0, white)"/>
<path d="M39.11 0.939204C39.6957 0.353558 40.6453 0.353738 41.2311 0.939204L60.317 20.0251L77.6969 37.404L79.4039 39.1111C79.9895 39.6968 79.9894 40.6464 79.4039 41.2322L41.2321 79.404C40.6464 79.9897 39.6968 79.9896 39.111 79.404L0.939097 41.2322C0.353566 40.6464 0.35353 39.6968 0.939097 39.1111L37.4039 2.64623L37.403 2.64526L39.11 0.939204ZM59.318 23.8533C58.3417 22.877 56.7582 22.8769 55.7819 23.8533L40.1705 39.4636L24.5602 23.8533C23.5839 22.8769 22.0004 22.8769 21.0241 23.8533L6.47425 38.404C5.49797 39.3804 5.49797 40.9629 6.47425 41.9392L21.0241 56.49C22.0004 57.4663 23.5839 57.4663 24.5602 56.49L40.1705 40.8787L55.7819 56.49C56.7582 57.4663 58.3417 57.4663 59.318 56.49L73.8688 41.9392C74.8447 40.963 74.8447 39.3803 73.8688 38.404L59.318 23.8533Z" stroke="var(--stroke-0, white)" stroke-opacity="0.81"/>
</g>
</svg>
