<svg preserveAspectRatio="xMidYMid meet" width="58.1176" height="76" overflow="visible" style="display: block;" viewBox="0 0 58.1176 76" fill="none" xmlns="http://www.w3.org/2000/svg">
<g id="card">
<g id="Path">
<path d="M49.1765 0C54.1145 0 58.1176 4.0031 58.1176 8.94118V67.0588C58.1176 71.9969 54.1145 76 49.1765 76H8.94118C4.0031 76 0 71.9969 0 67.0588V8.94118C0 4.0031 4.0031 0 8.94118 0H49.1765Z" fill="url(#paint0_linear_0_6)"/>
<path d="M8.94141 1.5H49.1768C53.2863 1.50016 56.6172 4.83185 56.6172 8.94141V67.0586C56.6172 71.1681 53.2863 74.4998 49.1768 74.5H8.94141C4.83176 74.5 1.5 71.1682 1.5 67.0586V8.94141C1.5 4.83176 4.83176 1.5 8.94141 1.5Z" stroke="var(--stroke-0, black)" stroke-opacity="0.23" stroke-width="3"/>
</g>
<g id="Path_2">
<path d="M15.6471 8.94118C16.8816 8.94118 17.8824 9.94195 17.8824 11.1765C17.8824 12.411 16.8816 13.4118 15.6471 13.4118H11.1765C9.94195 13.4118 8.94118 12.411 8.94118 11.1765C8.94118 9.94195 9.94195 8.94118 11.1765 8.94118H15.6471Z" fill="url(#paint1_linear_0_6)"/>
<path d="M11.1765 10.4412H15.6472C16.0532 10.4413 16.3826 10.7705 16.3826 11.1765C16.3826 11.5825 16.0532 11.9118 15.6472 11.9119H11.1765C10.7705 11.9119 10.4412 11.5826 10.4412 11.1765C10.4412 10.7704 10.7704 10.4412 11.1765 10.4412Z" stroke="var(--stroke-0, black)" stroke-opacity="0.23" stroke-width="3"/>
</g>
<g id="Path_3">
<path d="M46.9412 62.5882C48.1757 62.5882 49.1765 63.589 49.1765 64.8235C49.1765 66.058 48.1757 67.0588 46.9412 67.0588H42.4706C41.2361 67.0588 40.2353 66.058 40.2353 64.8235C40.2353 63.589 41.2361 62.5882 42.4706 62.5882H46.9412Z" fill="url(#paint2_linear_0_6)"/>
<path d="M42.4706 64.0882H46.9413C47.3474 64.0883 47.6767 64.4176 47.6767 64.8236C47.6767 65.2296 47.3473 65.5588 46.9413 65.5589H42.4706C42.0646 65.5589 41.7353 65.2297 41.7353 64.8236C41.7353 64.4175 42.0646 64.0882 42.4706 64.0882Z" stroke="var(--stroke-0, black)" stroke-opacity="0.23" stroke-width="3"/>
</g>
<g id="Shape">
<path d="M33.9395 26.8235C35.9064 26.8235 37.7911 27.6039 39.1813 28.9941C40.5715 30.3843 41.3529 32.2703 41.3529 34.2359C41.3529 36.191 40.5806 38.0664 39.2231 39.4341L30.6841 48.476C30.2623 48.9231 29.6736 49.1765 29.0588 49.1765C28.444 49.1765 27.8553 48.9231 27.434 48.4765L18.9122 39.4536C17.5367 38.0658 16.7647 36.1905 16.7647 34.2359C16.7647 32.2697 17.5454 30.384 18.9352 28.9941C20.3251 27.6042 22.2109 26.8235 24.177 26.8235C25.9783 26.8235 27.712 27.4787 29.0588 28.6573L29.4354 28.3489C30.7212 27.3649 32.3021 26.8235 33.9395 26.8235ZM33.9395 31.2932C33.2714 31.2932 32.6257 31.5212 32.1075 31.9337L31.8595 32.1552L30.6385 33.3773C29.8321 34.1816 28.5649 34.2435 27.6885 33.5621L27.4781 33.3763L26.2568 32.155C25.7061 31.6034 24.9575 31.2932 24.177 31.2932C23.3969 31.2932 22.649 31.6032 22.0967 32.1556C21.545 32.7073 21.2355 33.4549 21.2355 34.2359C21.2355 34.9054 21.4629 35.5503 21.8879 36.0812L22.1167 36.3368L29.0588 43.6859L35.9979 36.3393L36.2418 36.0685C36.6544 35.5498 36.8821 34.9045 36.8821 34.2359C36.8821 33.4559 36.5722 32.7076 36.0209 32.1556C35.4689 31.6035 34.72 31.2932 33.9395 31.2932ZM19.0165 34.646L19 34.2359L19.0086 34.5341L19.0165 34.646ZM33.1672 29.1159L32.9248 29.1592L32.3376 29.3122C32.6074 29.2244 32.8849 29.1586 33.1672 29.1159ZM20.8176 30.2964L20.5158 30.5747C20.6132 30.4778 20.7138 30.385 20.8176 30.2964Z" fill="url(#paint3_linear_0_6)"/>
<path d="M33.9395 28.3235C35.5088 28.3235 37.0115 28.9464 38.1202 30.055C39.2292 31.164 39.8525 32.6681 39.8526 34.2356C39.8526 35.7981 39.2346 37.2927 38.1583 38.3772L38.1329 38.4046L29.5938 47.4456L29.5928 47.4466C29.4552 47.5925 29.2615 47.6761 29.0587 47.6761C28.8558 47.676 28.6624 47.5926 28.5254 47.4476L28.5245 47.4466L20.003 38.4231L19.9776 38.3977L19.7774 38.1858C18.9109 37.2209 18.3876 35.9982 18.2842 34.7083L19.753 34.6282C19.8303 35.5001 20.1641 36.3282 20.7169 37.0188L20.7422 37.0511L20.7706 37.0813L20.9991 37.3372L21.0264 37.3665L27.9688 44.7161L29.0587 45.8704L30.1495 44.7161L37.0879 37.3694L37.1006 37.3567L37.1124 37.3431L37.3565 37.0726L37.3868 37.0384L37.4161 37.0022C38.0384 36.2197 38.3819 35.2454 38.3819 34.2356C38.3818 33.0578 37.9137 31.9289 37.0821 31.096V31.095L36.9219 30.9427C36.1068 30.2047 35.0442 29.7933 33.9395 29.7933C33.7262 29.7933 33.5144 29.809 33.3057 29.8392L33.0674 28.389C33.3544 28.3462 33.6458 28.3235 33.9395 28.3235ZM21.0049 31.1263C20.1991 31.9483 19.7443 33.0503 19.7354 34.2015L18.2647 34.2522C18.2647 34.2468 18.2647 34.2411 18.2647 34.2356C18.2648 32.6712 18.8846 31.1712 19.9874 30.0638L21.0049 31.1263ZM24.1768 28.3235C25.6138 28.3235 26.9973 28.8466 28.0713 29.7864L29.0264 30.6224L30.0088 29.8177L30.3545 29.5335C30.8792 29.1334 31.4659 28.8265 32.0879 28.6214L32.501 30.0325C32.0222 30.1965 31.5723 30.4421 31.1729 30.7601L31.1397 30.7864L31.1085 30.8147L30.8604 31.0364L30.8282 31.0647L30.7979 31.095L29.5792 32.3157C29.3183 32.5756 28.9109 32.5986 28.6251 32.388L28.5108 32.2874L27.3174 31.094C26.4851 30.2609 25.3545 29.7933 24.1768 29.7933C23.1308 29.7933 22.124 30.1628 21.3282 30.8284L20.3516 29.7288C21.4157 28.8257 22.7699 28.3236 24.1768 28.3235Z" stroke="var(--stroke-0, black)" stroke-opacity="0.23" stroke-width="3"/>
</g>
</g>
<defs>
<linearGradient id="paint0_linear_0_6" x1="29.0588" y1="0" x2="29.0588" y2="76" gradientUnits="userSpaceOnUse">
<stop stop-color="#F8F8FB"/>
<stop offset="1" stop-color="#EEEFF6"/>
</linearGradient>
<linearGradient id="paint1_linear_0_6" x1="13.4118" y1="8.94118" x2="13.4118" y2="13.4118" gradientUnits="userSpaceOnUse">
<stop stop-color="#E83E3E"/>
<stop offset="1" stop-color="#CD1D1D"/>
</linearGradient>
<linearGradient id="paint2_linear_0_6" x1="44.7059" y1="62.5882" x2="44.7059" y2="67.0588" gradientUnits="userSpaceOnUse">
<stop stop-color="#E83E3E"/>
<stop offset="1" stop-color="#CD1D1D"/>
</linearGradient>
<linearGradient id="paint3_linear_0_6" x1="29.0588" y1="26.8235" x2="29.0588" y2="49.1765" gradientUnits="userSpaceOnUse">
<stop stop-color="#E83E3E"/>
<stop offset="1" stop-color="#CD1D1D"/>
</linearGradient>
</defs>
</svg>
