<svg width="116" height="114" viewBox="0 0 116 114" fill="none" xmlns="http://www.w3.org/2000/svg">
<path d="M30.7108 13.7067C24.633 13.7671 18.2846 27.2039 18.3705 35.7121C18.4564 44.2202 18.6264 60.9623 18.6264 60.9623L43.7464 60.7083C43.7464 60.7083 43.5763 43.9662 43.4915 35.457C43.4057 26.951 36.7874 13.6453 30.7108 13.7067Z" fill="#FDFDFD" fill-opacity="0.36"/>
<path d="M18.6602 85.8689L43.8899 85.6142L43.8408 80.7296L18.61 80.9855L18.6602 85.8689Z" fill="#FDFDFD" fill-opacity="0.36"/>
<path d="M55.2684 0C57.8817 10.8675 51.76 14.7474 43 16.5535C54.0666 20.3369 48.7414 24.0891 46.4411 27.8569C56.7706 27.0629 60.135 31.8739 60.1194 39.4251C65.8311 36.2956 68.194 29.7253 83.1383 36.0621C79.4765 29.3516 78.1464 24.3382 86.3149 17.6122C80.1025 15.4013 74.2656 12.9102 77.2231 4.97445C68.4131 10.8675 61.7468 5.83389 55.2684 0ZM65.7372 10.5701C68.3191 10.5714 70.7948 11.5927 72.62 13.4096C74.4452 15.2265 75.4705 17.6902 75.4705 20.259C75.4693 22.8271 74.4434 25.2896 72.6183 27.1054C70.7932 28.9213 68.3183 29.942 65.7372 29.9433C63.1561 29.942 60.6811 28.9213 58.8561 27.1054C57.031 25.2896 56.0051 22.8271 56.0039 20.259C56.0039 17.6902 57.0292 15.2265 58.8544 13.4096C60.6796 11.5927 63.1553 10.5714 65.7372 10.5701ZM88.6778 29.881C91.385 42.539 84.7657 45.1391 74.7507 44.0803C79.5861 49.047 82.6062 54.6676 77.2701 63.2464C84.3588 61.5026 91.119 61.1289 95.0937 71C98.6146 63.8225 105.234 62.8416 113.355 64.9746C110.554 60.6619 107.409 56.3491 116 52.0831C110.21 48.1128 104.373 44.1893 108.27 32.6991C101.181 40.6395 94.7025 38.9424 88.6778 29.881ZM96.0952 41.8228C98.6762 41.824 101.151 42.8447 102.976 44.6606C104.801 46.4765 105.827 48.939 105.829 51.507C105.827 54.075 104.801 56.5375 102.976 58.3534C101.151 60.1693 98.6762 61.19 96.0952 61.1912C93.5141 61.19 91.0391 60.1693 89.214 58.3534C87.389 56.5375 86.3631 54.075 86.3618 51.507C86.3631 48.939 87.389 46.4765 89.214 44.6606C91.0391 42.8447 93.5141 41.824 96.0952 41.8228Z" fill="#FDFDFD" fill-opacity="0.36"/>
</svg>
