<svg width="65" height="76" viewBox="0 0 65 76" fill="none" xmlns="http://www.w3.org/2000/svg">
<path d="M63.6497 23.0243L50.086 1.17132C49.634 0.442937 48.8376 0 47.9804 0H16.042C15.1849 0 14.3885 0.442937 13.9362 1.17132L0.3726 23.0243C0.00403017 23.618 -0.0966104 24.34 0.0953192 25.012L14.1498 74.2026C14.4538 75.2666 15.4262 76 16.5327 76H47.4896C48.5961 76 49.5684 75.2664 49.8723 74.2026L63.9269 25.012C64.1189 24.34 64.0184 23.6182 63.6497 23.0243ZM41.8829 29.7392H34.4893V51.9735C34.4893 53.3079 33.4638 54.4562 32.1308 54.519C30.7076 54.586 29.5327 53.452 29.5327 52.0435V29.7392H22.0566C20.6481 29.7392 19.5142 28.5643 19.5812 27.1411C19.6439 25.8081 20.7923 24.7825 22.1267 24.7825H29.5327V17.4178C29.5327 16.0834 30.5583 14.935 31.8912 14.8723C33.3144 14.8053 34.4893 15.9392 34.4893 17.3477V24.7825H41.8128C43.1472 24.7825 44.2956 25.8081 44.3583 27.1411C44.4253 28.5643 43.2914 29.7392 41.8829 29.7392Z" fill="#FDFDFD" fill-opacity="0.92"/>
</svg>
