<svg width="73" height="69" viewBox="0 0 73 69" fill="none" xmlns="http://www.w3.org/2000/svg">
<path d="M36.1232 22.7063L2.08841 54.8933C-0.696136 57.5599 -0.696136 61.9038 2.08841 64.5702C4.87295 67.2368 9.40921 67.2368 12.1936 64.5702L45.9616 32.6384C44.0549 30.2444 43.7529 30.0004 36.1232 22.7063Z" fill="#FDFDFD" fill-opacity="0.36"/>
<path d="M64.1173 15.6798C64.0557 15.5983 63.9916 15.5162 63.9276 15.434L64.7511 14.6454C67.5358 11.9786 67.5356 7.63472 64.7511 4.96828C61.9665 2.30171 57.4304 2.30157 54.646 4.96828L54.1004 5.49081C51.4857 2.9915 49.2502 0.877354 49.0319 0.668179C48.1016 -0.222726 46.5942 -0.222726 45.6638 0.668179L34.4361 11.4193C33.9895 11.847 33.7383 12.4276 33.7383 13.0319C33.7383 13.6363 33.9895 14.2169 34.4361 14.6445L47.4477 27.1063C47.5284 27.2503 47.6276 27.3884 47.7454 27.516C48.2454 28.0536 48.7246 28.6164 49.2031 29.1762C57.8744 39.6348 61.2246 53.1525 58.3886 66.2559C58.1683 67.2746 58.6948 68.3065 59.6702 68.7654C60.0051 68.9244 60.3641 69 60.72 69C61.3977 69 62.0636 68.7223 62.5282 68.2055C75.866 53.3325 76.5351 31.242 64.1173 15.6798Z" fill="#FDFDFD" fill-opacity="0.36"/>
</svg>
