<svg width="75" height="77" viewBox="0 0 75 77" fill="none" xmlns="http://www.w3.org/2000/svg">
<path d="M69.9997 61.6665H4.99995C2.23846 61.6665 0 63.905 0 66.6665V74.1665C0 75.5471 1.1193 76.6665 2.50005 76.6665H72.4999C73.8805 76.6665 75 75.5472 75 74.1665V66.6665C74.9999 63.905 72.7612 61.6665 69.9997 61.6665Z" fill="#FDFDFD" fill-opacity="0.92"/>
<path d="M37.5001 0H37.5C22.3122 0 10 12.3122 10 27.4998V56.6666H64.9999V27.4998C64.9999 12.3122 52.6877 0 37.5001 0ZM47.5 30H40V42.4999C40 43.8805 38.8807 45 37.5 45C36.1192 45 34.9999 43.8807 34.9999 42.4999V30H27.4999C26.1193 30 24.9999 28.8807 24.9999 27.4999C24.9999 26.1194 26.1192 24.9999 27.4999 24.9999H34.9999V17.5C34.9999 16.1195 36.1192 15 37.5 15C38.8807 15 40 16.1193 40 17.5V25H47.5C48.8806 25 50.0001 26.1194 50.0001 27.5001C49.9999 28.8807 48.8806 30 47.5 30Z" fill="#FDFDFD" fill-opacity="0.92"/>
</svg>
