<svg width="80" height="80" viewBox="0 0 80 80" fill="none" xmlns="http://www.w3.org/2000/svg">
<path d="M68.8543 11.1811C68.8446 11.1811 68.8341 11.1811 68.8244 11.1811C68.8244 11.1692 68.8246 11.1575 68.8246 11.1457C68.8246 4.98426 63.8372 0 57.6776 0C48.4927 0 43.2027 10.5868 48.8257 17.9221L17.9225 48.8253C10.6777 43.2712 0 48.3853 0 57.6777C0 63.8645 5.00878 68.8192 11.1457 68.8189C11.1554 68.8189 11.1659 68.8189 11.1756 68.8189C11.1756 68.8308 11.1754 68.8425 11.1754 68.8542C11.1754 75.0157 16.1628 80 22.3224 80C31.5821 80 36.7536 69.3561 31.1743 62.078L62.0775 31.1748C69.4013 36.7896 80 31.5186 80 22.3224C80 16.1356 74.9917 11.1811 68.8543 11.1811Z" fill="#FDFDFD" fill-opacity="0.92"/>
<path d="M36.679 23.2441L31.6062 18.1718C37.4936 10.4947 31.5541 -0.76087 21.6811 0.0405451C15.97 0.504222 11.3302 5.30004 11.3302 11.3016C11.3302 11.3136 11.3302 11.3255 11.3302 11.3375C11.3204 11.3375 11.3098 11.3375 11.2999 11.3375C4.98227 11.3375 0.0236974 16.4551 9.26698e-05 22.5874C-0.0365026 31.9947 10.7735 37.2768 18.1705 31.6064L23.2435 36.679C23.6715 37.107 24.3654 37.107 24.7934 36.679L36.6788 24.7941C37.107 24.3659 37.107 23.6722 36.679 23.2441Z" fill="#FDFDFD" fill-opacity="0.92"/>
<path d="M61.8294 48.3936L56.7564 43.321C56.3283 42.893 55.6345 42.893 55.2064 43.321L43.321 55.206C42.893 55.634 42.893 56.3279 43.321 56.7559L48.3938 61.8285C42.444 69.5871 48.5429 80.7534 58.3186 79.9599C64.03 79.4963 68.6698 74.7004 68.6698 68.6988C68.6698 68.6868 68.6698 68.6749 68.6698 68.6629C68.6796 68.6629 68.6902 68.6629 68.7001 68.6629C75.0222 68.6629 79.9769 63.5404 79.9999 57.4117C80.0351 48.0627 69.2656 42.6934 61.8294 48.3936Z" fill="#FDFDFD" fill-opacity="0.92"/>
</svg>
