<svg width="61" height="77" viewBox="0 0 61 77" fill="none" xmlns="http://www.w3.org/2000/svg">
<path d="M30.0238 4.76425e-05C13.4369 0.029825 0 13.4851 0 30.0791V71.9869C0 74.2201 2.69996 75.3384 4.27906 73.7594L10.0264 67.8449L18.2803 76.2658C19.2593 77.2447 20.8464 77.2447 21.8253 76.2658L30.079 67.8449L38.3329 76.2658C39.3118 77.2447 40.8989 77.2447 41.8778 76.2658L50.1318 67.8449L55.8791 73.7593C57.4581 75.3382 60.1582 74.2199 60.1582 71.9868V30.3367C60.158 13.7626 46.5979 -0.0295793 30.0238 4.76425e-05ZM17.5461 40.1053C13.3995 40.1053 10.0264 36.7322 10.0264 32.5856C10.0264 28.4391 13.3997 25.066 17.5461 25.066C21.6925 25.066 25.0658 28.4392 25.0658 32.5856C25.0658 36.7321 21.6926 40.1053 17.5461 40.1053ZM42.612 40.1053C38.4654 40.1053 35.0923 36.7322 35.0923 32.5856C35.0923 28.4391 38.4656 25.066 42.612 25.066C46.7584 25.066 50.1317 28.4392 50.1317 32.5856C50.1317 36.7321 46.7585 40.1053 42.612 40.1053Z" fill="#FDFDFD" fill-opacity="0.36"/>
</svg>
