<svg width="73" height="78" viewBox="0 0 73 78" fill="none" xmlns="http://www.w3.org/2000/svg">
<path d="M35.7087 0.00749351C15.9216 0.404043 -0.0219148 16.7066 2.26114e-05 36.4977C0.0126671 47.9346 5.31163 58.1114 13.5651 64.783V75.4565C13.5651 76.8611 14.7039 78 16.1087 78H21.1956C22.6002 78 23.7391 76.8612 23.7391 75.4565V70.4415C23.7391 69.0719 24.7916 67.8934 26.1597 67.8289C27.6203 67.7602 28.8261 68.924 28.8261 70.3696V75.4565C28.8261 76.8611 29.9649 78 31.3697 78C32.7744 78 33.9132 76.8612 33.9132 75.4565V70.4415C33.9132 69.0719 34.9657 67.8934 36.3338 67.8289C37.7944 67.7602 39.0002 68.924 39.0002 70.3696V75.4565C39.0002 76.8611 40.139 78 41.5438 78C42.9485 78 44.0873 76.8612 44.0873 75.4565V70.4415C44.0873 69.0719 45.1398 67.8934 46.5079 67.8289C47.9685 67.7602 49.1743 68.924 49.1743 70.3696V75.4565C49.1743 76.8611 50.3131 78 51.7179 78H56.8048C58.2094 78 59.3483 76.8612 59.3483 75.4565V64.783C67.6117 58.1035 72.9134 47.91 72.9134 36.4566C72.9129 16.0735 56.1852 -0.402615 35.7087 0.00749351ZM20.3478 49.1739C14.7289 49.1739 10.1738 44.6188 10.1738 38.9999C10.1738 33.3811 14.7289 28.826 20.3478 28.826C25.9667 28.826 30.5217 33.3811 30.5217 38.9999C30.5217 44.6188 25.9667 49.1739 20.3478 49.1739ZM43.3416 58.6026C42.8448 59.0994 42.194 59.3478 41.5433 59.3478C40.8925 59.3478 40.2417 59.0994 39.7449 58.6026L36.4564 55.3139L33.1678 58.6026C32.1743 59.596 30.5647 59.596 29.5711 58.6026C28.5777 57.6091 28.5777 55.9995 29.5711 55.0059L34.658 49.919C35.6514 48.9256 37.2611 48.9256 38.2547 49.919L43.3416 55.0059C44.3353 55.9995 44.3353 57.609 43.3416 58.6026ZM52.565 49.1739C46.9462 49.1739 42.3911 44.6188 42.3911 38.9999C42.3911 33.3811 46.9462 28.826 52.565 28.826C58.1839 28.826 62.739 33.3811 62.739 38.9999C62.739 44.6188 58.1839 49.1739 52.565 49.1739Z" fill="#FDFDFD" fill-opacity="0.36"/>
</svg>
