<svg width="128" height="82" viewBox="0 0 128 82" fill="none" xmlns="http://www.w3.org/2000/svg">
<path d="M107.55 21.946C101.31 22.7008 89.9131 21.3907 94.2075 14.8372C96.2111 13.6705 98.2058 12.7459 99.1097 12.7459C100.902 12.7459 102.356 11.2925 102.356 9.49975C102.356 7.70648 100.902 6.25304 99.1097 6.25304C96.4594 6.25304 93.0963 7.91117 90.5832 9.41882C88.5133 8.39459 87.2577 5.30629 87.2577 5.30629H11.1092L5.41207 0V4.76442H0V22.3522H39.2163C45.1578 22.3522 54.4798 25.6524 55.3247 34.5449C55.2303 35.187 55.1666 35.8368 55.1666 36.4995C55.1666 45.2569 63.6575 52.3819 74.0936 52.3819C80.0629 52.3819 85.3959 50.0515 88.8679 46.4192C89.0755 46.2021 89.2641 45.9739 89.4574 45.7467L89.459 45.7549C89.459 45.7549 89.4672 45.7375 89.4706 45.7327C94.9843 25.462 107.55 21.946 107.55 21.946ZM65.7123 10.8519H81.1342C82.3102 10.8519 83.2655 11.8058 83.2655 12.9826C83.2655 14.1586 82.3108 15.1133 81.1342 15.1133H65.7123C64.5357 15.1133 63.5816 14.1589 63.5816 12.9826C63.5818 11.8061 64.5357 10.8519 65.7123 10.8519ZM65.7123 17.9541H81.1342C82.3102 17.9541 83.2655 18.9085 83.2655 20.0848C83.2655 21.2614 82.3108 22.2155 81.1342 22.2155H65.7123C64.5357 22.2155 63.5816 21.2616 63.5816 20.0848C63.5818 18.9085 64.5357 17.9541 65.7123 17.9541ZM74.0939 45.1268C67.7671 45.1268 62.4211 41.1764 62.4211 36.4995C62.4211 31.8229 67.7671 27.8706 74.0939 27.8706C75.6605 27.8706 77.1666 28.1145 78.5473 28.5503C77.0907 31.8636 74.4953 36.2044 71.8682 36.5217C70.5335 36.6833 69.582 37.8977 69.7439 39.2329C69.893 40.4679 70.9437 41.375 72.1586 41.375C72.2567 41.375 72.3554 41.3695 72.4551 41.3576C77.658 40.7263 81.149 34.6671 82.8468 30.8719C84.6509 32.3973 85.7672 34.3707 85.7672 36.4998C85.7669 41.1764 80.4212 45.1268 74.0939 45.1268Z" fill="#FDFDFD" fill-opacity="0.36"/>
<path d="M110.119 24.5142C95.7797 28.979 93.0732 46.5668 93.0732 46.5668C98.7982 47.1943 99.838 67.4013 99.838 67.4013C97.9165 77.6066 115.968 91.0195 124.595 72.1343C136.351 46.401 114.222 25.2972 110.119 24.5142Z" fill="#FDFDFD" fill-opacity="0.36"/>
</svg>
