<svg width="80" height="83" viewBox="0 0 80 83" fill="none" xmlns="http://www.w3.org/2000/svg">
<path d="M18.3156 48.7607L3.14241 63.9339C-1.04747 68.1238 -1.04747 74.917 3.14241 79.1067C7.33228 83.2964 14.1255 83.2964 18.3152 79.1067L33.4884 63.9336L18.3156 48.7607Z" fill="#FDFDFD" fill-opacity="0.92"/>
<path d="M70.2116 0.923099C69.7218 0.359405 69.0272 0.0279995 68.2809 0.00165411C67.5345 -0.02437 66.8185 0.257557 66.2904 0.785589L24.0046 43.0713C23.5055 43.5708 23.2192 44.2615 23.2192 44.968C23.2192 45.6742 23.5053 46.3651 24.0048 46.8646L46.7641 69.6239C47.2635 70.1233 47.9543 70.4094 48.6607 70.4094C49.367 70.4094 50.0579 70.1233 50.5574 69.6239L68.2585 51.9226C75.3417 44.8461 79.2616 35.3817 79.2569 25.3693C79.2812 16.4278 76.5091 8.13498 70.2116 0.923099ZM64.4658 48.1292L48.661 63.934L44.8676 60.1405L60.6725 44.3356C65.7294 39.2853 68.5329 32.5154 68.5291 25.3679C68.5304 22.1677 68.0679 19.1763 67.0979 16.3774C66.3847 14.3136 65.3937 12.3647 64.1503 10.5123L67.9591 6.70349C72.1148 12.3689 73.8712 18.4167 73.8928 25.3692C73.8883 33.9857 70.5549 42.0331 64.4658 48.1292Z" fill="#FDFDFD" fill-opacity="0.92"/>
</svg>
