<svg preserveAspectRatio="xMidYMid meet" width="100%" height="100%" overflow="visible" style="display: block;" viewBox="0 0 23.0257 28.9626" fill="none" xmlns="http://www.w3.org/2000/svg">
<g id="Layer_1">
<path id="Vector" d="M11.4651 28.9626L2.83183 19.9114L2.18609 6.72882L5.19112 9.68965L11.4873 1.68016L5.19112 8.04104C5.19112 8.04104 -0.00294894 1.42674 0.00108059 1.43125L0.347621 21.2236C0.346613 21.2435 11.4651 28.9626 11.4651 28.9626Z" fill="var(--fill-0, white)"/>
<path id="Vector_2" d="M4.72055 15.5618L8.94652 19.2261L8.10234 14.953L4.40121 11.3031" fill="var(--fill-0, white)"/>
<path id="Vector_3" d="M2.30791 6.88394L10.5211 14.9899L0 1.43125L2.30791 6.88394Z" fill="var(--fill-0, white)"/>
<path id="Vector_4" d="M11.5616 28.9626L20.1949 19.9114L20.8406 6.72882L17.8356 9.68965L11.5395 1.68016L17.8356 8.04104C17.8356 8.04104 23.0297 1.42674 23.0257 1.43125L22.6791 21.2236C22.6801 21.2435 11.5616 28.9626 11.5616 28.9626Z" fill="var(--fill-0, white)"/>
<path id="Vector_5" d="M18.3048 15.5618L14.0788 19.2261L14.923 14.953L18.6242 11.3031" fill="var(--fill-0, white)"/>
<path id="Vector_6" d="M20.7177 6.88394L12.5045 14.9899L23.0256 1.43125L20.7177 6.88394Z" fill="var(--fill-0, white)"/>
<g id="Group">
<path id="Vector_7" d="M14.8555 12.6694L17.78 9.97195L14.0788 19.226L20.8404 6.72162L18.4106 9.15126L22.4784 0L14.8555 12.6694Z" fill="var(--fill-0, #C861FF)"/>
</g>
</g>
</svg>
