<svg preserveAspectRatio="none" width="100%" height="100%" overflow="visible" style="display: block;" viewBox="0 0 31 31" fill="none" xmlns="http://www.w3.org/2000/svg">
<g id="Frame">
<rect width="31" height="31" rx="15.5" fill="var(--fill-0, #66388F)" fill-opacity="0.47"/>
<path id="Vector" d="M9.92831 8.93668L11.4479 9.43884L11.5587 9.51055C11.8046 9.36709 12.0586 9.22365 12.3185 9.08019L12.271 8.93668L12.5718 7.35865L13.9647 7L15.0251 8.21938L15.0566 8.36289C15.3546 8.29116 15.6455 8.29116 15.9435 8.36289L15.975 8.21938L17.0351 7L18.4284 7.35865L18.7293 8.93668L18.682 9.08019C18.9413 9.22365 19.1956 9.36709 19.4413 9.51055L19.5523 9.43884L21.0717 8.93668L22.0845 9.94092L21.5781 11.4472L21.4678 11.5907C21.6297 11.8059 21.7815 12.0929 21.9105 12.308H22.053L23.6203 12.595L24 13.9578L22.7815 15.0337H22.6547C22.6734 15.3924 22.6734 15.6793 22.6547 15.9663H22.7815L24 17.0422L23.6203 18.4768L22.053 18.7638L21.9105 18.692C21.7815 18.979 21.6297 19.1941 21.4678 19.4811L21.5781 19.5528L22.0845 21.0591L21.0717 22.135L19.5523 21.5612L19.4413 21.4894C19.1956 21.6329 18.9413 21.7764 18.682 21.9199L18.7293 22.0633L18.4284 23.6413L17.0351 24L15.975 22.7806L15.9435 22.7089H15.0566L15.0251 22.7806L13.9647 24L12.5717 23.6413L12.271 22.0633L12.3185 21.9199C12.0586 21.7764 11.8046 21.6329 11.5587 21.4894L11.4479 21.5612L9.92831 22.135L8.91528 21.0591L9.42179 19.5528L9.53261 19.4811C9.37022 19.1941 9.21821 18.979 9.08941 18.692L8.94694 18.7638L7.3799 18.4768L7 17.0422L8.21883 15.9663H8.34541C8.32693 15.6793 8.32693 15.3924 8.34541 15.0337H8.21883L7 13.9578L7.37989 12.595L8.94693 12.308H9.08941C9.2182 12.0929 9.37028 11.8059 9.5326 11.5907L9.42178 11.4472L8.91527 9.94092L9.92831 8.93668ZM11.9544 11.9494C9.99621 13.8861 9.99621 17.114 11.9544 19.0507C13.9126 20.9874 17.0874 20.9874 19.0459 19.0507C21.0036 17.114 21.0036 13.8861 19.0459 11.9494C17.0874 10.0127 13.9126 10.0127 11.9544 11.9494Z" fill="var(--fill-0, white)"/>
</g>
</svg>
