<svg preserveAspectRatio="none" width="100%" height="100%" overflow="visible" style="display: block;" viewBox="0 0 21 21" fill="none" xmlns="http://www.w3.org/2000/svg">
<g id="Group">
<path id="Vector" d="M8.25306 17.3672C9.25164 17.0609 10.4498 16.2199 11.0114 15.4312L11.1968 15.1709L10.9648 14.4688C10.1172 11.9043 11.6561 9.31833 14.2947 8.87324C16.2126 8.54975 18.2247 9.72285 18.9184 11.5689C19.0836 12.0084 19.0886 12.013 19.0349 11.6756C18.876 10.6776 18.3819 9.75755 17.5786 8.96354C16.7404 8.13506 15.767 7.66531 14.5508 7.50246C14.1776 7.45247 14.1388 7.46662 13.9985 7.7043C13.782 8.07073 13.1523 8.68375 12.687 8.98099C11.4337 9.78174 9.50173 9.78208 8.2454 8.98187C6.82612 8.0778 6.02339 6.34637 6.28389 4.75132C6.42611 3.88059 6.8095 3.10807 7.42063 2.46085C7.8635 1.9918 7.89347 1.94009 7.63754 2.08665C7.20663 2.3334 6.19798 3.42939 5.91164 3.96195C5.58164 4.57575 5.3137 5.66201 5.31531 6.37947C5.31636 6.99672 5.47829 7.81629 5.71554 8.40922C5.85383 8.75484 5.87138 8.76574 6.38364 8.82369C6.67298 8.85642 7.13026 8.95909 7.39981 9.05182C9.7832 9.87183 10.9077 12.6206 9.79191 14.899C9.03137 16.4519 7.27066 17.4519 5.62489 17.2655C4.95504 17.1896 5.02608 17.2803 5.76876 17.4492C6.42693 17.5989 7.62705 17.5593 8.25306 17.3672Z" fill="var(--fill-0, white)"/>
<path id="Vector_2" d="M10.5 0C4.70767 0 0 4.70767 0 10.5C0 16.2923 4.70767 21 10.5 21C16.2923 21 21 16.2923 21 10.5C21 4.70767 16.2923 0 10.5 0ZM10.5 1.12791C15.6831 1.12791 19.8721 5.31688 19.8721 10.5C19.8721 15.6831 15.6831 19.8721 10.5 19.8721C5.31688 19.8721 1.1279 15.6831 1.1279 10.5C1.1279 5.31688 5.31688 1.12791 10.5 1.12791Z" fill="var(--fill-0, white)"/>
</g>
</svg>
