<svg preserveAspectRatio="none" width="100%" height="100%" overflow="visible" style="display: block;" viewBox="0 0 41 41" fill="none" xmlns="http://www.w3.org/2000/svg">
<g id="Frame">
<rect width="41" height="41" rx="20.5" fill="var(--fill-0, #66388F)" fill-opacity="0.47"/>
<path id="Vector" d="M18 24.4986V25.6683C18.0006 26.9028 17.5267 28.0878 16.6809 28.9667C16.2723 29.3935 15.7868 29.735 15.2512 29.9721C14.8475 30.1509 14.4199 30.2665 13.9827 30.315V32.0107H15.997C16.125 32.0107 16.2478 32.0628 16.3383 32.1555C16.4288 32.2483 16.4797 32.3741 16.4797 32.5053C16.4797 32.6365 16.4288 32.7623 16.3383 32.8551C16.2478 32.9479 16.125 33 15.997 33H11.003C10.875 33 10.7522 32.9479 10.6617 32.8551C10.5712 32.7623 10.5203 32.6365 10.5203 32.5053C10.5203 32.3741 10.5712 32.2483 10.6617 32.1555C10.7522 32.0628 10.875 32.0107 11.003 32.0107H13.0173V30.315C12.5801 30.2664 12.1525 30.1508 11.7488 29.9721C11.2132 29.735 10.7277 29.3935 10.3191 28.9667C9.47308 28.0876 8.99916 26.9022 9 25.6674V24.4977C9 24.4327 9.0125 24.3683 9.03678 24.3082C9.06105 24.2482 9.09664 24.1936 9.1415 24.1476C9.18636 24.1016 9.23962 24.0652 9.29823 24.0403C9.35684 24.0154 9.41967 24.0026 9.48311 24.0026C9.54655 24.0026 9.60937 24.0154 9.66799 24.0403C9.7266 24.0652 9.77986 24.1016 9.82472 24.1476C9.86958 24.1936 9.90516 24.2482 9.92944 24.3082C9.95372 24.3683 9.96622 24.4327 9.96622 24.4977V25.6674C9.96369 26.6425 10.338 27.579 11.0074 28.272C11.3313 28.6137 11.7188 28.8853 12.1469 29.0708C12.5751 29.2563 13.0352 29.3518 13.5 29.3518C13.9648 29.3518 14.4249 29.2563 14.8531 29.0708C15.2812 28.8853 15.6687 28.6137 15.9926 28.272C16.6618 27.5789 17.0361 26.6425 17.0338 25.6674V24.4977C17.0338 24.3664 17.0847 24.2405 17.1753 24.1476C17.2659 24.0548 17.3888 24.0026 17.5169 24.0026C17.645 24.0026 17.7679 24.0548 17.8585 24.1476C17.9491 24.2405 18 24.3673 18 24.4986ZM11.1215 26.6907C10.9861 26.3675 10.917 26.0192 10.9185 25.6674V21.6618C10.9163 21.3066 10.9854 20.9546 11.1215 20.6278C11.3862 19.9884 11.8829 19.4794 12.5068 19.2081C12.8256 19.0686 13.169 18.9978 13.5157 19.0001C13.8607 18.9976 14.2024 19.0684 14.5194 19.2081C14.9857 19.4153 15.3823 19.7583 15.6601 20.1945C15.9378 20.6307 16.0843 21.141 16.0815 21.6618L16.0711 25.6683C16.0731 26.367 15.8049 27.038 15.3253 27.5345C15.0903 27.7741 14.8133 27.9662 14.5089 28.1006C14.192 28.2403 13.8502 28.3111 13.5052 28.3086C13.1586 28.3108 12.8152 28.24 12.4963 28.1006C11.8759 27.8328 11.3824 27.3267 11.1215 26.6907Z" fill="var(--fill-0, white)" fill-opacity="0.8"/>
<path id="Vector_2" d="M32 24.4986V25.6683C32.0007 26.9028 31.4741 28.0878 30.5344 28.9667C30.0804 29.3935 29.5409 29.735 28.9458 29.9721C28.4972 30.1509 28.0221 30.2665 27.5363 30.315V32.0107H29.7744C29.9167 32.0107 30.0531 32.0628 30.1537 32.1555C30.2542 32.2483 30.3107 32.3741 30.3107 32.5053C30.3107 32.6365 30.2542 32.7623 30.1537 32.8551C30.0531 32.9479 29.9167 33 29.7744 33H24.2256C24.0833 33 23.9469 32.9479 23.8463 32.8551C23.7458 32.7623 23.6893 32.6365 23.6893 32.5053C23.6893 32.3741 23.7458 32.2483 23.8463 32.1555C23.9469 32.0628 24.0833 32.0107 24.2256 32.0107H26.4637V30.315C25.9779 30.2664 25.5028 30.1508 25.0542 29.9721C24.4591 29.735 23.9196 29.3935 23.4656 28.9667C22.5256 28.0876 21.9991 26.9022 22 25.6674V24.4977C22 24.4327 22.0139 24.3683 22.0409 24.3082C22.0678 24.2482 22.1074 24.1936 22.1572 24.1476C22.2071 24.1016 22.2662 24.0652 22.3314 24.0403C22.3965 24.0154 22.4663 24.0026 22.5368 24.0026C22.6073 24.0026 22.6771 24.0154 22.7422 24.0403C22.8073 24.0652 22.8665 24.1016 22.9164 24.1476C22.9662 24.1936 23.0057 24.2482 23.0327 24.3082C23.0597 24.3683 23.0736 24.4327 23.0736 24.4977V25.6674C23.0708 26.6425 23.4867 27.579 24.2304 28.272C24.5903 28.6137 25.0209 28.8853 25.4966 29.0708C25.9723 29.2563 26.4835 29.3518 27 29.3518C27.5165 29.3518 28.0277 29.2563 28.5034 29.0708C28.9791 28.8853 29.4097 28.6137 29.7696 28.272C30.5131 27.5789 30.929 26.6425 30.9264 25.6674V24.4977C30.9264 24.3664 30.983 24.2405 31.0836 24.1476C31.1843 24.0548 31.3208 24.0026 31.4632 24.0026C31.6056 24.0026 31.7421 24.0548 31.8428 24.1476C31.9434 24.2405 32 24.3673 32 24.4986ZM24.3572 26.6907C24.2068 26.3675 24.13 26.0192 24.1317 25.6674V21.6618C24.1293 21.3066 24.206 20.9546 24.3572 20.6278C24.6513 19.9884 25.2032 19.4794 25.8964 19.2081C26.2507 19.0686 26.6322 18.9978 27.0174 19.0001C27.4008 18.9976 27.7805 19.0684 28.1326 19.2081C28.6508 19.4153 29.0915 19.7583 29.4001 20.1945C29.7087 20.6307 29.8715 21.141 29.8683 21.6618L29.8567 25.6683C29.859 26.367 29.561 27.038 29.0281 27.5345C28.767 27.7741 28.4593 27.9662 28.121 28.1006C27.7689 28.2403 27.3891 28.3111 27.0058 28.3087C26.6206 28.3108 26.2391 28.24 25.8848 28.1006C25.1955 27.8328 24.6471 27.3267 24.3572 26.6907Z" fill="var(--fill-0, white)" fill-opacity="0.8"/>
<path id="Vector_3" d="M25 10.4986V11.6683C25.0006 12.9028 24.5267 14.0878 23.6809 14.9667C23.2723 15.3935 22.7868 15.735 22.2512 15.9721C21.8475 16.1509 21.4199 16.2665 20.9827 16.315V18.0107H22.997C23.125 18.0107 23.2478 18.0628 23.3383 18.1555C23.4288 18.2483 23.4797 18.3741 23.4797 18.5053C23.4797 18.6365 23.4288 18.7623 23.3383 18.8551C23.2478 18.9479 23.125 19 22.997 19H18.003C17.875 19 17.7522 18.9479 17.6617 18.8551C17.5712 18.7623 17.5203 18.6365 17.5203 18.5053C17.5203 18.3741 17.5712 18.2483 17.6617 18.1555C17.7522 18.0628 17.875 18.0107 18.003 18.0107H20.0173V16.315C19.5801 16.2664 19.1525 16.1508 18.7488 15.9721C18.2132 15.735 17.7277 15.3935 17.3191 14.9667C16.4731 14.0876 15.9992 12.9022 16 11.6674V10.4977C16 10.4327 16.0125 10.3683 16.0368 10.3082C16.0611 10.2482 16.0966 10.1936 16.1415 10.1476C16.1864 10.1016 16.2396 10.0652 16.2982 10.0403C16.3568 10.0154 16.4197 10.0026 16.4831 10.0026C16.5466 10.0026 16.6094 10.0154 16.668 10.0403C16.7266 10.0652 16.7799 10.1016 16.8247 10.1476C16.8696 10.1936 16.9052 10.2482 16.9294 10.3082C16.9537 10.3683 16.9662 10.4327 16.9662 10.4977V11.6674C16.9637 12.6425 17.338 13.579 18.0074 14.272C18.3313 14.6137 18.7188 14.8853 19.1469 15.0708C19.5751 15.2563 20.0352 15.3518 20.5 15.3518C20.9648 15.3518 21.4249 15.2563 21.8531 15.0708C22.2812 14.8853 22.6687 14.6137 22.9926 14.272C23.6618 13.5789 24.0361 12.6425 24.0338 11.6674V10.4977C24.0338 10.3664 24.0847 10.2405 24.1753 10.1476C24.2659 10.0548 24.3888 10.0026 24.5169 10.0026C24.645 10.0026 24.7679 10.0548 24.8585 10.1476C24.9491 10.2405 25 10.3673 25 10.4986ZM18.1215 12.6907C17.9861 12.3675 17.917 12.0192 17.9185 11.6674V7.66183C17.9163 7.30655 17.9854 6.95462 18.1215 6.62784C18.3862 5.98843 18.8829 5.47939 19.5068 5.20811C19.8256 5.06861 20.169 4.99779 20.5157 5.00006C20.8607 4.99758 21.2024 5.06842 21.5194 5.20811C21.9857 5.41526 22.3823 5.75826 22.6601 6.19449C22.9378 6.63072 23.0843 7.14096 23.0815 7.66183L23.0711 11.6683C23.0731 12.367 22.8049 13.038 22.3253 13.5345C22.0903 13.7741 21.8133 13.9662 21.5089 14.1006C21.192 14.2403 20.8502 14.3111 20.5052 14.3086C20.1586 14.3108 19.8152 14.24 19.4963 14.1006C18.8759 13.8328 18.3824 13.3267 18.1215 12.6907Z" fill="var(--fill-0, white)" fill-opacity="0.8"/>
</g>
</svg>
