<svg preserveAspectRatio="none" width="100%" height="100%" overflow="visible" style="display: block;" viewBox="0 0 27 27" fill="none" xmlns="http://www.w3.org/2000/svg">
<g id="Frame">
<rect width="27" height="27" rx="12.61" fill="var(--fill-0, #FF3B30)" fill-opacity="0.42"/>
<path id="Line 4" d="M6.46967 12.4697C6.17678 12.7626 6.17678 13.2374 6.46967 13.5303L11.2426 18.3033C11.5355 18.5962 12.0104 18.5962 12.3033 18.3033C12.5962 18.0104 12.5962 17.5355 12.3033 17.2426L8.06066 13L12.3033 8.75736C12.5962 8.46447 12.5962 7.98959 12.3033 7.6967C12.0104 7.40381 11.5355 7.40381 11.2426 7.6967L6.46967 12.4697ZM19 13.75C19.4142 13.75 19.75 13.4142 19.75 13C19.75 12.5858 19.4142 12.25 19 12.25V13V13.75ZM7 13V13.75H19V13V12.25H7V13Z" fill="var(--stroke-0, white)" fill-opacity="0.71"/>
</g>
</svg>
