<svg preserveAspectRatio="none" width="100%" height="100%" overflow="visible" style="display: block;" viewBox="0 0 24 24" fill="none" xmlns="http://www.w3.org/2000/svg">
<g id="Frame">
<rect width="24" height="24" rx="12" fill="var(--fill-0, #4A3274)" fill-opacity="0.71"/>
<path id="Vector" d="M8 11.9984C8.0009 13.103 7.10621 13.9991 6.00164 14C4.89707 14.0009 4.0009 13.1062 4 12.0016C3.99906 10.897 4.89374 10.0009 5.99831 10C7.10288 9.99908 7.99905 10.8938 8 11.9984Z" fill="var(--fill-0, white)"/>
<path id="Vector_2" d="M14 11.9984C14.0009 13.103 13.1062 13.9991 12.0016 14C10.8971 14.0009 10.0009 13.1062 10 12.0016C9.99906 10.897 10.8937 10.0009 11.9983 10C13.1029 9.99908 13.9991 10.8938 14 11.9984Z" fill="var(--fill-0, white)"/>
<path id="Vector_3" d="M20 11.9984C20.0009 13.103 19.1062 13.9991 18.0016 14C16.8971 14.0009 16.0009 13.1062 16 12.0016C15.9991 10.897 16.8937 10.0009 17.9983 10C19.1029 9.99908 19.9991 10.8938 20 11.9984Z" fill="var(--fill-0, white)"/>
</g>
</svg>
