<svg width="24" height="24" viewBox="0 0 24 24" fill="none" xmlns="http://www.w3.org/2000/svg">
  <rect width="24" height="24" rx="12" fill="#FF3B30" fill-opacity="0.29"/>
  <path fill-rule="evenodd" clip-rule="evenodd" d="M7.1147 16.447C7.15582 16.4486 7.2039 16.4494 7.2599 16.4494C7.70633 16.449 8.12003 16.5515 8.47007 16.7868C8.82112 17.0229 9.03712 17.3447 9.16727 17.6596C9.35098 18.1039 9.38576 18.6024 9.39219 18.9622C9.46823 18.9833 9.57358 19.0062 9.71502 19.0269C10.2864 19.1104 11.0858 19.1118 12.0073 19.111C12.9287 19.1102 13.7282 19.1075 14.2994 19.023C14.4408 19.0021 14.5461 18.979 14.6221 18.9579C14.6279 18.5981 14.6619 18.0995 14.8449 17.6549C14.9746 17.3398 15.19 17.0175 15.5407 16.781C15.8904 16.545 16.3039 16.4419 16.7503 16.4415C16.8063 16.4415 16.8544 16.4405 16.8955 16.4389C16.8957 16.3984 16.8953 16.3527 16.8944 16.301C16.8931 16.225 16.8904 16.1322 16.8873 16.0269C16.881 15.8053 16.873 15.5282 16.8727 15.2359C16.872 14.2808 17.217 13.7276 17.4684 13.3246C17.5212 13.24 17.5698 13.162 17.6103 13.0883C17.8321 12.6842 18.1265 11.9872 18.125 10.0943C18.1236 8.35408 17.3875 7.08538 16.2789 6.22814C15.1459 5.35212 13.5923 4.88756 11.9958 4.88888C10.3993 4.89021 8.84645 5.35736 7.7149 6.23525C6.60763 7.09431 5.87359 8.36426 5.875 10.1044C5.87653 11.9974 6.17206 12.6939 6.39449 13.0976C6.43509 13.1713 6.48387 13.2492 6.53676 13.3337C6.7888 13.7363 7.13478 14.2889 7.13557 15.244C7.13578 15.5363 7.12826 15.8135 7.12222 16.0351C7.11933 16.1404 7.1168 16.2331 7.11562 16.3091C7.11483 16.3608 7.11452 16.4065 7.1147 16.447ZM6.2481 15.9862C6.21813 17.0733 6.21082 17.3392 7.26065 17.3383C8.51706 17.3373 8.51798 18.4796 8.51859 19.2412C8.5192 20.0028 10.2131 20.0014 12.008 19.9999C13.8028 19.9984 15.4968 19.997 15.4961 19.2354C15.4955 18.4738 15.4946 17.3314 16.751 17.3304C17.8008 17.3295 17.7931 17.0637 17.7613 15.9766C17.7551 15.7627 17.748 15.517 17.7477 15.2352C17.7472 14.5573 17.9436 14.2368 18.181 13.8494C18.5436 13.2577 19.0019 12.5099 19 10.0935C18.9935 1.96106 4.9934 1.97271 5 10.1052C5.00196 12.5216 5.46145 13.2686 5.82505 13.8597C6.06308 14.2467 6.26 14.5668 6.26057 15.2448C6.26078 15.5265 6.254 15.7723 6.2481 15.9862Z" fill="white"/>
  <path d="M11 15.4989C11.0008 16.3274 10.3299 16.9994 9.50142 17C8.67298 17.0006 8.00078 16.3295 8 15.501C7.99922 14.6726 8.67015 14.0006 9.49858 14C10.327 13.9994 10.9993 14.6705 11 15.4989Z" fill="white"/>
  <path d="M16 15.4988C16.0007 16.3272 15.3297 16.9993 14.5012 17C13.6728 17.0007 13.0007 16.3296 13 15.5012C12.9993 14.6728 13.6703 14.0007 14.4987 14C15.3272 13.9993 15.9993 14.6704 16 15.4988Z" fill="white"/>
</svg>
