<svg preserveAspectRatio="none" width="100%" height="100%" overflow="visible" style="display: block;" viewBox="0 0 24 24" fill="none" xmlns="http://www.w3.org/2000/svg">
<g id="Frame">
<rect width="24" height="24" rx="12" fill="var(--fill-0, #66388F)" fill-opacity="0.95"/>
<path id="Vector" d="M15.3087 6.87085L17.142 8.70593C17.6941 9.25857 18.1746 9.73952 18.4906 10.1659C18.8241 10.616 19.1064 11.1782 18.9607 11.8518C18.8151 12.5255 18.3256 12.9207 17.8358 13.1925C17.3719 13.45 16.7356 13.689 16.0047 13.9636L14.8608 14.3933C14.3821 14.5732 14.3471 14.5996 14.3271 14.6169C14.3064 14.6348 14.288 14.655 14.272 14.6773C14.2564 14.699 14.2333 14.7366 14.0975 15.2301L14.0854 15.2741C13.9606 15.7277 13.8484 16.1357 13.7224 16.4496C13.593 16.7719 13.3871 17.1629 12.9727 17.3995C12.7087 17.5502 12.4098 17.6292 12.1058 17.6287C11.6285 17.628 11.2562 17.3897 10.9846 17.1733C10.7201 16.9626 10.4211 16.6633 10.0889 16.3306L9.47788 15.7191L7.44758 17.7514C7.11667 18.0826 6.57987 18.0829 6.24862 17.752C5.91737 17.4211 5.91709 16.8843 6.24801 16.5531L8.27952 14.5195L7.69764 13.937C7.36749 13.6066 7.07029 13.3091 6.86091 13.046C6.64587 12.7759 6.40908 12.4063 6.40609 11.9325C6.40414 11.6229 6.48451 11.3183 6.63902 11.0501C6.87563 10.6392 7.26415 10.4348 7.58455 10.3063C7.89649 10.181 8.30171 10.0694 8.75179 9.94524C8.76637 9.94128 8.781 9.93721 8.79568 9.93314C9.29008 9.79687 9.32744 9.77366 9.34895 9.75819C9.37165 9.74184 9.39231 9.7228 9.4105 9.70147C9.42785 9.68111 9.45414 9.64543 9.6307 9.16357L10.0232 8.09228C10.0307 8.07201 10.038 8.05181 10.0454 8.03168C10.3163 7.29222 10.5518 6.64932 10.8069 6.18044C11.0758 5.68622 11.4692 5.1901 12.146 5.04076C12.8231 4.89139 13.3885 5.17615 13.8402 5.51153C14.2687 5.82964 14.7524 6.31392 15.3087 6.87085Z" fill="var(--fill-0, white)" fill-opacity="0.95"/>
</g>
</svg>
