<svg preserveAspectRatio="none" width="100%" height="100%" overflow="visible" style="display: block;" viewBox="0 0 24 24" fill="none" xmlns="http://www.w3.org/2000/svg">
<g id="Frame">
<rect width="24" height="24" rx="12" fill="var(--fill-0, #4A3274)" fill-opacity="0.71"/>
<path id="Vector" fill-rule="evenodd" clip-rule="evenodd" d="M15.3087 6.87085L17.142 8.70593C17.6941 9.25857 18.1746 9.73952 18.4906 10.1659C18.8241 10.616 19.1064 11.1782 18.9607 11.8518C18.8151 12.5255 18.3256 12.9207 17.8358 13.1925C17.3719 13.45 16.7356 13.689 16.0047 13.9636L14.8608 14.3933C14.3821 14.5732 14.3471 14.5996 14.3271 14.6169C14.3064 14.6348 14.288 14.655 14.272 14.6773C14.2564 14.699 14.2333 14.7366 14.0975 15.2301L14.0854 15.2741C13.9606 15.7277 13.8484 16.1357 13.7224 16.4496C13.593 16.7719 13.3871 17.1629 12.9727 17.3995C12.7087 17.5502 12.4098 17.6292 12.1058 17.6287C11.6285 17.628 11.2562 17.3897 10.9846 17.1733C10.7201 16.9626 10.4211 16.6633 10.0889 16.3306L9.47788 15.7191L7.44758 17.7514C7.11667 18.0826 6.57987 18.0829 6.24862 17.752C5.91737 17.4211 5.91709 16.8843 6.24801 16.5531L8.27952 14.5195L7.69764 13.937C7.36749 13.6066 7.07029 13.3091 6.86091 13.046C6.64587 12.7759 6.40908 12.4063 6.40609 11.9325C6.40414 11.6229 6.48451 11.3183 6.63902 11.0501C6.87563 10.6392 7.26415 10.4348 7.58455 10.3063C7.89649 10.181 8.30171 10.0694 8.75179 9.94524C8.76637 9.94128 8.781 9.93721 8.79568 9.93314C9.29008 9.79687 9.32744 9.77366 9.34895 9.75819C9.37165 9.74184 9.39231 9.7228 9.4105 9.70147C9.42785 9.68111 9.45414 9.64543 9.6307 9.16357L10.0232 8.09228C10.0307 8.07201 10.038 8.05181 10.0454 8.03168C10.3163 7.29222 10.5518 6.64932 10.8069 6.18044C11.0758 5.68622 11.4692 5.1901 12.146 5.04076C12.8231 4.89139 13.3885 5.17615 13.8402 5.51153C14.2687 5.82964 14.7524 6.31392 15.3087 6.87085ZM12.5137 6.69609C12.5132 6.69616 12.5124 6.69629 12.5113 6.69653C12.5089 6.69706 12.5083 6.69737 12.5087 6.69721C12.5092 6.69704 12.5089 6.69707 12.5087 6.69721C12.5084 6.69735 12.507 6.6982 12.5034 6.70085C12.4998 6.70355 12.4938 6.70827 12.4857 6.71595C12.4494 6.75009 12.3855 6.82689 12.2963 6.99088C12.1086 7.3359 11.9149 7.85774 11.6152 8.67561L11.2228 9.74688C11.2128 9.77414 11.2029 9.80153 11.1928 9.82903C11.0701 10.1667 10.9422 10.5182 10.701 10.8013C10.5944 10.9264 10.4731 11.0382 10.3396 11.1343C10.0378 11.3516 9.67684 11.4501 9.33058 11.5447C9.30239 11.5524 9.2743 11.5601 9.24634 11.5678C8.73828 11.7079 8.42801 11.7948 8.21627 11.8798C8.18159 11.8937 8.15394 11.9059 8.13218 11.9163C8.14604 11.9362 8.16413 11.9606 8.18759 11.9901C8.3298 12.1688 8.55675 12.3979 8.92936 12.7708L11.2561 15.0999C11.6311 15.4752 11.8613 15.7039 12.041 15.847C12.0694 15.8696 12.0933 15.8874 12.1129 15.9011C12.1231 15.8794 12.1351 15.852 12.1488 15.818C12.2345 15.6047 12.3219 15.292 12.4627 14.7802C12.4703 14.7523 12.478 14.7243 12.4857 14.6962C12.5799 14.3504 12.6781 13.9902 12.8944 13.6888C12.9878 13.5587 13.0961 13.44 13.217 13.3352C13.4977 13.0921 13.8474 12.9617 14.1829 12.8366C14.2102 12.8264 14.2374 12.8162 14.2645 12.8061L15.3481 12.399C16.1571 12.095 16.6725 11.899 17.013 11.71C17.1747 11.6203 17.2503 11.5563 17.2839 11.5201C17.2986 11.5042 17.3026 11.4964 17.3027 11.4962C17.3028 11.4958 17.3032 11.4947 17.3034 11.4934C17.3038 11.4921 17.3039 11.4912 17.304 11.4907C17.3039 11.4904 17.3034 11.4811 17.2966 11.4608C17.2809 11.4137 17.2384 11.3241 17.1283 11.1754C16.8962 10.8623 16.5078 10.4704 15.8969 9.85876L14.1548 8.11489C13.5394 7.49887 13.1447 7.10692 12.8295 6.87293C12.6796 6.76172 12.5897 6.71897 12.5425 6.70331C12.5319 6.69978 12.5245 6.69801 12.5201 6.69712C12.5164 6.69637 12.5144 6.69614 12.5137 6.69609Z" fill="var(--fill-0, white)" fill-opacity="0.71"/>
</g>
</svg>
