<svg preserveAspectRatio="none" width="100%" height="100%" overflow="visible" style="display: block;" viewBox="0 0 41 41" fill="none" xmlns="http://www.w3.org/2000/svg">
<g id="Frame">
<rect width="41" height="41" rx="20.5" fill="var(--fill-0, #66388F)" fill-opacity="0.47"/>
<path id="Vector" d="M24.9991 9C27.7611 9 30 11.2392 30 14.0002C30 16.7617 27.7606 19 24.9991 19C22.2385 19 20 16.7612 20 14.0002C20 11.2392 22.2385 9 24.9991 9Z" fill="var(--fill-0, white)" fill-opacity="0.8"/>
<path id="Vector_2" d="M23 19.4702L14.2131 27L12 24.7088L19.4854 16C20.5913 18.0949 23 19.4702 23 19.4702Z" fill="var(--fill-0, white)" fill-opacity="0.8"/>
<path id="Vector_3" d="M11 26.2171L11.8935 25L14 27.1845L12.7866 28L11 26.2171Z" fill="var(--fill-0, white)" fill-opacity="0.8"/>
<path id="Vector_4" d="M11.2642 26L12.8707 27.6422L12.0964 27.7853C12.0073 28.2621 11.8572 29.4656 12.4127 30.2528C12.7736 30.7635 13.3969 31.0335 14.2652 31.0553C17.9073 31.1496 19.0937 30.8704 21.0851 28.6241C23.3822 26.033 27.4417 26.5641 27.6132 26.5883C27.8574 26.6222 28.0289 26.8559 27.9959 27.1101C27.9634 27.3648 27.7407 27.5441 27.4956 27.5093C27.4573 27.5046 23.7248 27.0149 21.7391 29.2546C19.6786 31.5795 18.1995 32 15.3527 32C15.0047 32 14.6358 31.9935 14.2433 31.9847C13.085 31.9549 12.2283 31.5581 11.6954 30.8044C11.0472 29.8871 11.0717 28.684 11.1648 27.9586L11 27.9884L11.2642 26Z" fill="var(--fill-0, white)" fill-opacity="0.8"/>
</g>
</svg>
