<svg preserveAspectRatio="none" width="100%" height="100%" overflow="visible" style="display: block;" viewBox="0 0 19.3614 16" fill="none" xmlns="http://www.w3.org/2000/svg">
<g id="Communication / Chat_Dots">
<path id="Vector" d="M3.50739 14.1732L4.97728 13.1645L4.98809 13.1574C5.29453 12.947 5.44916 12.8409 5.62169 12.7653C5.77647 12.6975 5.94152 12.6481 6.11178 12.618C6.30369 12.5843 6.5036 12.5843 6.90488 12.5843H15.2779C16.3562 12.5843 16.8959 12.5843 17.3081 12.404C17.6711 12.2454 17.9664 11.992 18.1513 11.6806C18.3614 11.327 18.3614 10.8644 18.3614 9.93941V3.64528C18.3614 2.72026 18.3614 2.25706 18.1513 1.90341C17.9664 1.59202 17.6705 1.33903 17.3076 1.18038C16.8949 1 16.3555 1 15.2751 1H4.08667C3.0063 1 2.46571 1 2.05307 1.18038C1.69009 1.33903 1.3952 1.59202 1.21026 1.90341C1.00001 2.25741 1.00001 2.72117 1.00001 3.648V13.1397C1.00001 14.0215 1.00001 14.4622 1.21072 14.6887C1.39397 14.8856 1.67174 15.0002 1.96547 15C2.30322 14.9997 2.70474 14.7241 3.50739 14.1732Z" stroke="var(--stroke-0, white)" stroke-opacity="0.8" stroke-width="2" stroke-linecap="round" stroke-linejoin="round"/>
</g>
</svg>
