<svg preserveAspectRatio="none" width="100%" height="100%" overflow="visible" style="display: block;" viewBox="0 0 41 41" fill="none" xmlns="http://www.w3.org/2000/svg">
<g id="Frame">
<rect width="41" height="41" rx="20.5" fill="var(--fill-0, #EAB146)" fill-opacity="0.47"/>
<path id="Vector" fill-rule="evenodd" clip-rule="evenodd" d="M21.1723 12.7273C20.9505 12.7273 20.7706 12.9206 20.7706 13.1591V20.5C20.7706 20.977 20.411 21.3636 19.9674 21.3636C19.5237 21.3636 19.1641 20.977 19.1641 20.5V14.8864C19.1641 14.6479 18.9843 14.4545 18.7625 14.4545C18.5407 14.4545 18.3608 14.6479 18.3608 14.8864V22.1994C18.3608 23.1563 17.2576 23.602 16.6715 22.8818L14.6253 20.3675C14.4985 20.2117 14.3081 20.1338 14.117 20.1595C13.6644 20.2203 13.4513 20.7932 13.7402 21.1728L17.5078 26.1238C18.5429 27.484 20.0911 28.2727 21.7256 28.2727C24.3035 28.2727 26.3935 26.0257 26.3935 23.254V16.6136C26.3935 16.3752 26.2136 16.1818 25.9918 16.1818C25.7701 16.1818 25.5902 16.3752 25.5902 16.6136V20.5C25.5902 20.977 25.2306 21.3636 24.787 21.3636C24.3433 21.3636 23.9837 20.977 23.9837 20.5V14.8864C23.9837 14.6479 23.8038 14.4545 23.5821 14.4545C23.3603 14.4545 23.1804 14.6479 23.1804 14.8864V20.5C23.1804 20.977 22.8208 21.3636 22.3772 21.3636C21.9335 21.3636 21.5739 20.977 21.5739 20.5V13.1591C21.5739 12.9206 21.3941 12.7273 21.1723 12.7273ZM23.1492 12.7776C22.9816 11.7671 22.1603 11 21.1723 11C20.1843 11 19.3629 11.7671 19.1954 12.7776C19.0559 12.7446 18.9111 12.7273 18.7625 12.7273C17.6534 12.7273 16.7543 13.6939 16.7543 14.8864V20.3606L15.8343 19.2301C15.3563 18.6427 14.6381 18.3487 13.9178 18.4455C12.2111 18.6749 11.4077 20.8354 12.4968 22.2666L16.2645 27.2176C17.6046 28.9787 19.6092 30 21.7256 30C25.1908 30 28 26.9797 28 23.254V16.6136C28 15.4212 27.1009 14.4545 25.9918 14.4545C25.8432 14.4545 25.6984 14.4719 25.559 14.5048C25.3914 13.4944 24.5701 12.7273 23.5821 12.7273C23.4335 12.7273 23.2886 12.7446 23.1492 12.7776Z" fill="var(--fill-0, white)"/>
</g>
</svg>
