<svg preserveAspectRatio="none" width="100%" height="100%" overflow="visible" style="display: block;" viewBox="0 0 41 41" fill="none" xmlns="http://www.w3.org/2000/svg">
<g id="Frame">
<rect width="41" height="41" rx="20.5" fill="var(--fill-0, #66388F)" fill-opacity="0.47"/>
<path id="Vector" fill-rule="evenodd" clip-rule="evenodd" d="M20.1723 12.7273C19.9505 12.7273 19.7706 12.9206 19.7706 13.1591V20.5C19.7706 20.977 19.411 21.3636 18.9674 21.3636C18.5237 21.3636 18.1641 20.977 18.1641 20.5V14.8864C18.1641 14.6479 17.9843 14.4545 17.7625 14.4545C17.5407 14.4545 17.3608 14.6479 17.3608 14.8864V22.1994C17.3608 23.1563 16.2576 23.602 15.6715 22.8818L13.6253 20.3675C13.4985 20.2117 13.3081 20.1338 13.117 20.1595C12.6644 20.2203 12.4513 20.7932 12.7402 21.1728L16.5078 26.1238C17.5429 27.484 19.0911 28.2727 20.7256 28.2727C23.3035 28.2727 25.3935 26.0257 25.3935 23.254V16.6136C25.3935 16.3752 25.2136 16.1818 24.9918 16.1818C24.7701 16.1818 24.5902 16.3752 24.5902 16.6136V20.5C24.5902 20.977 24.2306 21.3636 23.787 21.3636C23.3433 21.3636 22.9837 20.977 22.9837 20.5V14.8864C22.9837 14.6479 22.8038 14.4545 22.5821 14.4545C22.3603 14.4545 22.1804 14.6479 22.1804 14.8864V20.5C22.1804 20.977 21.8208 21.3636 21.3772 21.3636C20.9335 21.3636 20.5739 20.977 20.5739 20.5V13.1591C20.5739 12.9206 20.3941 12.7273 20.1723 12.7273ZM22.1492 12.7776C21.9816 11.7671 21.1603 11 20.1723 11C19.1843 11 18.3629 11.7671 18.1954 12.7776C18.0559 12.7446 17.9111 12.7273 17.7625 12.7273C16.6534 12.7273 15.7543 13.6939 15.7543 14.8864V20.3606L14.8343 19.2301C14.3563 18.6427 13.6381 18.3487 12.9178 18.4455C11.2111 18.6749 10.4077 20.8354 11.4968 22.2666L15.2645 27.2176C16.6046 28.9787 18.6092 30 20.7256 30C24.1908 30 27 26.9797 27 23.254V16.6136C27 15.4212 26.1009 14.4545 24.9918 14.4545C24.8432 14.4545 24.6984 14.4719 24.559 14.5048C24.3914 13.4944 23.5701 12.7273 22.5821 12.7273C22.4335 12.7273 22.2886 12.7446 22.1492 12.7776Z" fill="var(--fill-0, white)" fill-opacity="0.8"/>
</g>
</svg>
