<svg preserveAspectRatio="none" width="100%" height="100%" overflow="visible" style="display: block;" viewBox="0 0 60 41" fill="none" xmlns="http://www.w3.org/2000/svg">
<path d="M24.9167 14H14.0833C13.485 14 13 14.4477 13 15V25C13 25.5523 13.485 26 14.0833 26H24.9167C25.515 26 26 25.5523 26 25V15C26 14.4477 25.515 14 24.9167 14Z" fill="var(--fill-0, white)" fill-opacity="0.19"/>
<path d="M26.3333 23L31.4667 24.92C31.635 24.9822 31.8177 25.0063 31.9988 24.9901C32.1799 24.9739 32.3538 24.9179 32.5052 24.8271C32.6567 24.7362 32.781 24.6133 32.8672 24.4691C32.9535 24.3249 32.9991 24.1638 33 24V16C32.9991 15.8362 32.9535 15.6751 32.8672 15.5309C32.781 15.3867 32.6567 15.2638 32.5052 15.1729C32.3538 15.0821 32.1799 15.0261 31.9988 15.0099C31.8177 14.9937 31.635 15.0178 31.4667 15.08L26.3333 17V23ZM26.3333 25V15C26.3333 14.7348 26.2163 14.4804 26.0079 14.2929C25.7995 14.1054 25.5169 14 25.2222 14H14.1111C13.8164 14 13.5338 14.1054 13.3254 14.2929C13.1171 14.4804 13 14.7348 13 15V25C13 25.2652 13.1171 25.5196 13.3254 25.7071C13.5338 25.8946 13.8164 26 14.1111 26H25.2222C25.5169 26 25.7995 25.8946 26.0079 25.7071C26.2163 25.5196 26.3333 25.2652 26.3333 25Z" fill="var(--fill-0, white)" fill-opacity="0.09" stroke="var(--stroke-0, white)" stroke-opacity="0.8" stroke-width="1.5" stroke-linecap="round" stroke-linejoin="round"/>
</svg>
