<svg preserveAspectRatio="none" width="100%" height="100%" overflow="visible" style="display: block;" viewBox="0 0 41 41" fill="none" xmlns="http://www.w3.org/2000/svg">
<path d="M15.7778 28H25.2222M15.0222 24.8889H25.9778C27.0356 24.8889 27.5646 24.8889 27.9687 24.7193C28.3241 24.5702 28.6131 24.3322 28.7941 24.0396C29 23.7068 29 23.2712 29 22.4V16.4889C29 15.6177 29 15.1821 28.7941 14.8493C28.6131 14.5566 28.3241 14.3187 27.9687 14.1695C27.5646 14 27.0356 14 25.9778 14H15.0222C13.9643 14 13.4354 14 13.0314 14.1695C12.6759 14.3187 12.387 14.5566 12.2059 14.8493C12 15.1821 12 15.6177 12 16.4889V22.4C12 23.2712 12 23.7068 12.2059 24.0396C12.387 24.3322 12.6759 24.5702 13.0314 24.7193C13.4354 24.8889 13.9643 24.8889 15.0222 24.8889Z" stroke="var(--stroke-0, white)" stroke-opacity="0.8" stroke-width="2" stroke-linecap="round" stroke-linejoin="round"/>
</svg>
