<svg preserveAspectRatio="none" width="100%" height="100%" overflow="visible" style="display: block;" viewBox="0 0 60 41" fill="none" xmlns="http://www.w3.org/2000/svg">
<path d="M27 18.6769V20.0972C27.0007 21.5962 26.4215 23.0352 25.3878 24.1025C24.8884 24.6207 24.2949 25.0353 23.6404 25.3233C23.1469 25.5404 22.6243 25.6807 22.0899 25.7397V27.7987H24.5519C24.7083 27.7987 24.8584 27.8619 24.969 27.9746C25.0797 28.0872 25.1418 28.24 25.1418 28.3993C25.1418 28.5586 25.0797 28.7114 24.969 28.8241C24.8584 28.9367 24.7083 29 24.5519 29H18.4481C18.2917 29 18.1416 28.9367 18.031 28.8241C17.9203 28.7114 17.8582 28.5586 17.8582 28.3993C17.8582 28.24 17.9203 28.0872 18.031 27.9746C18.1416 27.8619 18.2917 27.7987 18.4481 27.7987H20.9101V25.7397C20.3757 25.6806 19.8531 25.5403 19.3596 25.3233C18.7051 25.0353 18.1116 24.6207 17.6122 24.1025C16.5782 23.0349 15.999 21.5955 16 20.0962V18.6758C16 18.5968 16.0153 18.5187 16.0449 18.4457C16.0746 18.3728 16.1181 18.3065 16.1729 18.2507C16.2278 18.1948 16.2929 18.1506 16.3645 18.1203C16.4361 18.0901 16.5129 18.0746 16.5905 18.0746C16.668 18.0746 16.7448 18.0901 16.8164 18.1203C16.8881 18.1506 16.9532 18.1948 17.008 18.2507C17.0628 18.3065 17.1063 18.3728 17.136 18.4457C17.1657 18.5187 17.1809 18.5968 17.1809 18.6758V20.0962C17.1778 21.2802 17.6354 22.4174 18.4534 23.2589C18.8493 23.6738 19.3229 24.0036 19.8462 24.2288C20.3695 24.454 20.9319 24.5701 21.5 24.5701C22.0681 24.5701 22.6305 24.454 23.1538 24.2288C23.6771 24.0036 24.1507 23.6738 24.5466 23.2589C25.3644 22.4172 25.8219 21.2802 25.8191 20.0962V18.6758C25.8191 18.5163 25.8813 18.3634 25.992 18.2507C26.1027 18.1379 26.2529 18.0746 26.4095 18.0746C26.5661 18.0746 26.7163 18.1379 26.8271 18.2507C26.9378 18.3634 27 18.5174 27 18.6769ZM18.5929 21.3387C18.4275 20.9462 18.343 20.5233 18.3448 20.0962V15.2322C18.3422 14.8008 18.4267 14.3735 18.5929 13.9767C18.9165 13.2002 19.5235 12.5821 20.2861 12.2527C20.6757 12.0833 21.0955 11.9973 21.5192 12.0001C21.9408 11.9971 22.3585 12.0831 22.7459 12.2527C23.3158 12.5042 23.8006 12.9207 24.1401 13.4505C24.4795 13.9802 24.6586 14.5997 24.6552 15.2322L24.6424 20.0972C24.6449 20.9456 24.3171 21.7604 23.7309 22.3633C23.4437 22.6543 23.1052 22.8875 22.7331 23.0507C22.3457 23.2204 21.928 23.3064 21.5064 23.3034C21.0827 23.306 20.663 23.22 20.2733 23.0507C19.515 22.7255 18.9119 22.111 18.5929 21.3387Z" fill="var(--fill-0, white)"/>
<line x1="11.7063" y1="10.9664" x2="32.9664" y2="30.2937" stroke="var(--stroke-0, white)" stroke-opacity="0.65" stroke-linecap="round"/>
</svg>
