<svg preserveAspectRatio="none" width="100%" height="100%" overflow="visible" style="display: block;" viewBox="0 0 35.009 11.6688" fill="none" xmlns="http://www.w3.org/2000/svg">
<g id="glasses">
<path id="Vector" d="M10.7526 1H4.75099C2.67938 1 1 2.66493 1 4.71873V6.94996C1 9.00376 2.67938 10.6687 4.75099 10.6687H10.7526C12.8242 10.6687 14.5036 9.00376 14.5036 6.94996V4.71873C14.5036 2.66493 12.8242 1 10.7526 1Z" stroke="var(--stroke-0, #1C191F)" stroke-width="2"/>
<path id="Vector_2" d="M30.258 1.00011H24.2564C22.1848 1.00011 20.5054 2.66505 20.5054 4.71884V6.95008C20.5054 9.00387 22.1848 10.6688 24.2564 10.6688H30.258C32.3296 10.6688 34.009 9.00387 34.009 6.95008V4.71884C34.009 2.66505 32.3296 1.00011 30.258 1.00011Z" stroke="var(--stroke-0, #1C191F)" stroke-width="2"/>
<path id="Vector_3" d="M14.5037 5.4625H20.5053" stroke="var(--stroke-0, #1C191F)" stroke-width="2" stroke-linecap="round"/>
</g>
</svg>
