<svg preserveAspectRatio="none" width="100%" height="100%" overflow="visible" style="display: block;" viewBox="0 0 22.5061 17.619" fill="none" xmlns="http://www.w3.org/2000/svg">
<g id="expression-wink">
<path id="Vector" d="M21.0056 2.97498C21.8343 2.97498 22.506 2.30901 22.506 1.48749C22.506 0.665972 21.8343 0 21.0056 0C20.177 0 19.5052 0.665972 19.5052 1.48749C19.5052 2.30901 20.177 2.97498 21.0056 2.97498Z" fill="var(--fill-0, #241132)"/>
<path id="Vector_2" d="M1.5004 2.97509C2.32904 2.97509 3.00079 2.30911 3.00079 1.48759C3.00079 0.666076 2.32904 0.000103583 1.5004 0.000103583C0.671751 0.000103583 0 0.666076 0 1.48759C0 2.30911 0.671751 2.97509 1.5004 2.97509Z" fill="var(--fill-0, #241132)"/>
<path id="Vector_3" d="M3.00079 13.3877C7.50199 16.3627 14.2538 16.3627 18.0048 13.3877" stroke="var(--stroke-0, #241132)" stroke-width="4" stroke-linecap="round"/>
</g>
</svg>
