<svg preserveAspectRatio="none" width="100%" height="100%" overflow="visible" style="display: block;" viewBox="0 0 50.4706 31.9439" fill="none" xmlns="http://www.w3.org/2000/svg">
<g id="bucket-hat">
<path id="Vector" d="M25.2351 2.78118C29.7892 2.78118 33.5337 3.53503 36.4079 5.09758C39.2683 6.65271 41.2958 9.02342 42.4069 12.3281L42.4128 12.3456L46.7605 23.8378H3.71065L8.05733 12.3456L8.06124 12.3368L8.06417 12.3281C9.17525 9.02354 11.2019 6.6527 14.0622 5.09758C16.9364 3.53498 20.681 2.78121 25.2351 2.78118Z" fill="var(--fill-0, #C3AB4E)" stroke="var(--stroke-0, black)"/>
<path id="Vector_2" d="M1.45215 24.0775H49.0176C49.2232 24.0775 49.4286 24.177 49.6074 24.388C49.7886 24.6019 49.9219 24.91 49.96 25.2493C50.0338 25.9084 49.7526 26.6109 48.8613 26.9056L48.8379 26.9134L48.8164 26.9232C41.9852 29.9331 34.3837 31.4437 25.2354 31.4437C16.087 31.4437 8.48552 29.9331 1.6543 26.9232L1.63184 26.9134L1.60938 26.9056C0.717944 26.6109 0.436874 25.9084 0.510742 25.2493C0.548781 24.91 0.68206 24.6019 0.863281 24.388C1.04194 24.1772 1.24669 24.0776 1.45215 24.0775Z" fill="var(--fill-0, #FFD632)" stroke="var(--stroke-0, black)"/>
<path id="Vector_3" d="M9.20646 22.437C9.97344 18.2538 10.8422 13.6903 13.4258 9.50726C15.8294 5.61537 19.9468 4.56346 24.1663 3.0421" stroke="var(--stroke-0, #302B22)" stroke-linecap="round"/>
<path id="Vector_4" d="M41.8113 22.3739C41.0443 18.1907 40.1756 13.6272 37.592 9.44418C35.1883 5.55229 31.071 4.50039 26.8514 2.97903" stroke="var(--stroke-0, #302B22)" stroke-linecap="round"/>
<path id="Vector_5" d="M25.317 23.1977L25.317 11.4087L25.317 2.28159" stroke="var(--stroke-0, #302B22)" stroke-linecap="round"/>
</g>
</svg>
