<svg preserveAspectRatio="none" width="100%" height="100%" overflow="visible" style="display: block;" viewBox="0 0 76.5203 93.7122" fill="none" xmlns="http://www.w3.org/2000/svg">
<g id="body">
<path id="neon-halo" d="M38.2601 74.3746C59.3906 74.3746 76.5203 57.7252 76.5203 37.1873C76.5203 16.6493 59.3906 0 38.2601 0C17.1296 0 0 16.6493 0 37.1873C0 57.7252 17.1296 74.3746 38.2601 74.3746Z" fill="var(--fill-0, #FF3D3D)" fill-opacity="0.24"/>
<path id="Vector" d="M37.5826 55.5375H38.9381C44.4518 55.5375 49.4254 57.2388 53.0093 59.9662C56.5927 62.6933 58.7651 66.4249 58.7652 70.5072V93.2123H17.7545V70.5072C17.7545 66.4248 19.9277 62.6933 23.5113 59.9662C27.0953 57.2388 32.0687 55.5375 37.5826 55.5375Z" fill="var(--fill-0, #FFC04B)" stroke="var(--stroke-0, black)"/>
<path id="Vector_2" d="M24.7564 60.2434L37.416 67.6809L51.7636 60.2434" stroke="var(--stroke-0, #B47936)" stroke-opacity="0.56" stroke-width="3" stroke-linecap="round" stroke-linejoin="round"/>
</g>
</svg>
