<svg preserveAspectRatio="none" width="100%" height="100%" overflow="visible" style="display: block;" viewBox="0 0 76.5203 98.2822" fill="none" xmlns="http://www.w3.org/2000/svg">
<g id="avatar-2-glasses-hat">
<path id="neon-halo" d="M38.2601 75.862C59.3906 75.862 76.5203 58.8797 76.5203 37.931C76.5203 16.9823 59.3906 0 38.2601 0C17.1296 0 0 16.9823 0 37.931C0 58.8797 17.1296 75.862 38.2601 75.862Z" fill="var(--fill-0, #B92699)" fill-opacity="0.47"/>
<g id="body">
<path id="Vector" d="M39.0636 57.9465H40.4034C51.3516 57.9465 60.0031 64.8404 60.0031 73.1008V96.6037H19.464V73.1008C19.464 64.8404 28.1155 57.9466 39.0636 57.9465Z" fill="var(--fill-0, #4B4E68)" stroke="var(--stroke-0, black)"/>
<path id="Vector_2" d="M39.7338 59.7343V96.7822" stroke="var(--stroke-0, #32E6FF)" stroke-opacity="0.5" stroke-width="3" stroke-linecap="round"/>
</g>
<g id="head">
<path id="Vector_3" d="M38.9646 21.34C50.5881 21.34 60.0036 30.6805 60.0037 42.1935C60.0037 53.7066 50.5882 63.0469 38.9646 63.047C27.341 63.047 17.9256 53.7066 17.9256 42.1935C17.9257 30.6804 27.3411 21.34 38.9646 21.34Z" fill="var(--fill-0, #FFA36C)" stroke="var(--stroke-0, black)"/>
<path id="Vector_4" d="M38.9648 20.8401C50.8604 20.8401 60.5038 30.4004 60.5038 42.1938C60.5038 53.9871 50.8604 63.5475 38.9648 63.5475C46.8111 59.109 50.7997 51.9898 50.7997 42.1938C50.7997 32.3978 46.8111 25.2786 38.9648 20.8401Z" fill="var(--fill-0, #E97854)" fill-opacity="0.22"/>
</g>
<g id="hat">
<path id="Vector_5" d="M39.3492 13.7138C44.5526 13.7138 49.1145 14.898 52.7662 17.4286C56.2708 19.8573 58.9761 23.5533 60.5992 28.7294H18.0992C19.7223 23.5535 22.4268 19.8573 25.9312 17.4286C29.583 14.898 34.1457 13.7138 39.3492 13.7138Z" fill="var(--fill-0, #10101A)" stroke="var(--stroke-0, black)"/>
<path id="Vector_6" d="M18.7307 27.4411H59.967C61.2291 27.4411 62.3108 28.5496 62.3108 29.9919C62.3107 31.434 61.229 32.5417 59.967 32.5417H18.7307C17.4688 32.5416 16.3871 31.4339 16.387 29.9919C16.387 28.5497 17.4687 27.4412 18.7307 27.4411Z" fill="var(--fill-0, #753FBF)" stroke="var(--stroke-0, black)"/>
</g>
<g id="glasses">
<path id="Vector_7" d="M30.5027 47.5324C33.9014 47.5324 36.6567 44.8009 36.6567 41.4314C36.6567 38.0618 33.9014 35.3303 30.5027 35.3303C27.1039 35.3303 24.3487 38.0618 24.3487 41.4314C24.3487 44.8009 27.1039 47.5324 30.5027 47.5324Z" stroke="var(--stroke-0, #303030)" stroke-width="3"/>
<path id="Vector_8" d="M47.426 47.5323C50.8248 47.5323 53.58 44.8008 53.58 41.4312C53.58 38.0617 50.8248 35.3302 47.426 35.3302C44.0273 35.3302 41.272 38.0617 41.272 41.4312C41.272 44.8008 44.0273 47.5323 47.426 47.5323Z" stroke="var(--stroke-0, #303030)" stroke-width="3"/>
<path id="Vector_9" d="M36.6566 41.4311H41.2721" stroke="var(--stroke-0, #303030)" stroke-width="3" stroke-linecap="round"/>
</g>
<g id="expression-curious">
<path id="Vector_10" d="M30.5029 42.9564C31.3526 42.9564 32.0414 42.2735 32.0414 41.4311C32.0414 40.5887 31.3526 39.9059 30.5029 39.9059C29.6532 39.9059 28.9644 40.5887 28.9644 41.4311C28.9644 42.2735 29.6532 42.9564 30.5029 42.9564Z" fill="var(--fill-0, #241132)"/>
<path id="Vector_11" d="M31.2722 55.1584C35.8877 52.1079 42.0417 52.1079 46.6572 55.1584" stroke="var(--stroke-0, #241132)" stroke-width="4" stroke-linecap="round"/>
</g>
<g id="expression-curious_2">
<path id="Vector_12" d="M47.4507 42.9564C48.3004 42.9564 48.9892 42.2735 48.9892 41.4311C48.9892 40.5887 48.3004 39.9059 47.4507 39.9059C46.601 39.9059 45.9122 40.5887 45.9122 41.4311C45.9122 42.2735 46.601 42.9564 47.4507 42.9564Z" fill="var(--fill-0, #241132)"/>
</g>
</g>
</svg>
