<svg preserveAspectRatio="none" width="100%" height="100%" overflow="visible" style="display: block;" viewBox="0 0 48.8307 30.7369" fill="none" xmlns="http://www.w3.org/2000/svg">
<g id="hair-and-headband">
<path id="Vector" d="M22.4775 0.5C28.9326 0.5 34.4142 2.94328 38.2861 7.25C42.153 11.5512 44.444 17.7465 44.4541 25.3076L43.54 29.5361C41.0005 26.1069 38.3241 23.4695 35.125 21.6572C31.6434 19.6849 27.5821 18.7109 22.4775 18.7109C17.373 18.7109 13.3117 19.6849 9.83008 21.6572C6.63066 23.4697 3.95381 26.1073 1.41406 29.5371L0.5 25.3076C0.510121 17.7465 2.80214 11.5512 6.66895 7.25C10.5408 2.94329 16.0225 0.500011 22.4775 0.5Z" fill="var(--fill-0, #4C632B)" stroke="var(--stroke-0, black)"/>
<path id="Vector_2" d="M5.03837 12.7949H39.9173C41.5714 12.795 42.9046 14.1234 42.9046 15.7529C42.9045 17.3823 41.5714 18.7107 39.9173 18.7109H5.03837C3.38416 18.7109 2.05015 17.3824 2.05009 15.7529C2.05009 14.1233 3.38412 12.7949 5.03837 12.7949Z" fill="var(--fill-0, #687C37)" stroke="var(--stroke-0, black)"/>
<path id="Vector_3" d="M46.1839 19.1L40.4251 14.6586L48.1028 10.2182L46.1839 19.1Z" fill="var(--fill-0, #687C37)" stroke="var(--stroke-0, black)"/>
</g>
</svg>
