<svg preserveAspectRatio="none" width="100%" height="100%" overflow="visible" style="display: block;" viewBox="0 0 52.8715 20.0659" fill="none" xmlns="http://www.w3.org/2000/svg">
<g id="side-cap">
<path id="Vector" d="M16.4512 17.5653H2.87501C2.15045 17.5653 1.58868 17.464 1.19044 17.3153C0.782124 17.1628 0.596321 16.9817 0.532234 16.8622C0.488419 16.7804 0.476301 16.6888 0.581062 16.5438C0.70386 16.374 0.982799 16.153 1.50391 15.9569L12.669 12.622L16.4512 17.5653Z" fill="var(--fill-0, #10101A)" stroke="var(--stroke-0, black)"/>
<path id="Vector_2" d="M31.695 0.5C36.9166 0.5 41.5493 1.97831 45.0544 4.72168C48.4242 7.35925 50.7773 11.186 51.61 16.0605H11.7809C12.6136 11.1859 14.9667 7.35924 18.3366 4.72168C21.8416 1.97844 26.4736 0.500059 31.695 0.5Z" fill="var(--fill-0, #10101A)" stroke="var(--stroke-0, black)"/>
<path id="Vector_3" d="M24.2967 16.5603C26.7497 13.0475 29.5093 11.2911 32.269 11.2911C35.0287 11.2911 37.7883 13.0475 40.2413 16.5603" stroke="var(--stroke-0, #7C5CFF)" stroke-width="4" stroke-linecap="round"/>
<path id="Vector_4" d="M12.1483 16.5604C18.1057 17.564 24.8077 18.0659 31.5097 18.0659C38.2118 18.0659 44.9138 17.564 50.8712 16.5604" stroke="var(--stroke-0, #7C5CFF)" stroke-width="4" stroke-linecap="round"/>
</g>
</svg>
