<svg preserveAspectRatio="none" width="100%" height="100%" overflow="visible" style="display: block;" viewBox="0 0 76.8118 94.0692" fill="none" xmlns="http://www.w3.org/2000/svg">
<g id="avatar-3-cap">
<path id="neon-halo" d="M38.4059 74.6579C59.6169 74.6579 76.8118 57.9452 76.8118 37.329C76.8118 16.7127 59.6169 0 38.4059 0C17.1949 0 1.74344e-05 16.7127 1.74344e-05 37.329C1.74344e-05 57.9452 17.1949 74.6579 38.4059 74.6579Z" fill="var(--fill-0, #C8FF3D)" fill-opacity="0.13"/>
<g id="body">
<path id="Vector" d="M38.187 55.7469H39.3774C49.03 55.7469 56.7319 62.539 56.7319 70.7762V93.5692H20.8325V70.7762C20.8325 62.5391 28.5346 55.747 38.187 55.7469Z" fill="var(--fill-0, #4E8AA3)" stroke="var(--stroke-0, black)"/>
<path id="Vector_2" d="M21.0856 79.1373H56.4793" stroke="var(--stroke-0, #FF4FD8)" stroke-opacity="0.52" stroke-width="3" stroke-linecap="round"/>
<path id="Vector_3" d="M21.0856 84.3633H56.4793" stroke="var(--stroke-0, #FF4FD8)" stroke-opacity="0.52" stroke-width="3" stroke-linecap="round"/>
</g>
<g id="head">
<path id="Vector_4" d="M38.0296 20.2844C49.4027 20.2846 58.6146 29.424 58.6146 40.6887C58.6146 51.9535 49.4027 61.0928 38.0296 61.093C26.6565 61.093 17.4438 51.9536 17.4437 40.6887C17.4437 29.4239 26.6565 20.2844 38.0296 20.2844Z" fill="var(--fill-0, #FFA36C)" stroke="var(--stroke-0, black)"/>
<path id="Vector_5" d="M38.0291 19.7844C49.6744 19.7844 59.1147 29.1435 59.1147 40.6886C59.1147 52.2337 49.6744 61.5928 38.0291 61.5928C45.8609 57.4463 49.9651 50.2687 49.9651 40.6886C49.9651 31.1085 45.8609 23.9309 38.0291 19.7844Z" fill="var(--fill-0, #E97854)" fill-opacity="0.22"/>
</g>
<g id="cap">
<path id="Vector_6" d="M37.6526 16.9248C42.459 16.9248 46.7168 18.2073 50.0227 20.7412C53.1947 23.1726 55.5237 26.7823 56.6135 31.6025H18.6926C19.7823 26.7824 22.1106 23.1726 25.2824 20.7412C28.5882 18.2072 32.8462 16.9249 37.6526 16.9248Z" fill="var(--fill-0, #628E94)" stroke="var(--stroke-0, black)"/>
<path id="Vector_7" d="M68.4655 31.2286C69.3318 31.5632 69.6642 32.227 69.6222 32.8087C69.5813 33.3758 69.1765 33.9694 68.317 34.1923L48.7747 32.0144L49.7955 26.058L68.4655 31.2286Z" fill="var(--fill-0, #628E94)" stroke="var(--stroke-0, black)"/>
<path id="Vector_8" d="M35.4114 23.0263L54.651 28.3553C56.773 29.1664 56.583 31.7947 54.3662 32.2977L34.2072 30.0514L35.4114 23.0263Z" fill="var(--fill-0, #628E94)"/>
<g id="Vector_9">
<path d="M18.0735 32.8496C23.0939 31.8542 29.1183 31.3564 37.1509 31.3564C45.1835 31.3564 52.2121 31.8542 57.2324 32.8496" fill="var(--fill-0, #628E94)"/>
<path d="M18.0735 32.8496C23.0939 31.8542 29.1183 31.3564 37.1509 31.3564C45.1835 31.3564 52.2121 31.8542 57.2324 32.8496" stroke="var(--stroke-0, #C8FF3D)" stroke-width="4" stroke-linecap="round"/>
</g>
</g>
<g id="expression-surprised">
<path id="Vector_10" d="M29.7458 42.1817C30.9935 42.1817 32.0049 41.1789 32.0049 39.9419C32.0049 38.705 30.9935 37.7022 29.7458 37.7022C28.498 37.7022 27.4866 38.705 27.4866 39.9419C27.4866 41.1789 28.498 42.1817 29.7458 42.1817Z" fill="var(--fill-0, #241132)"/>
<path id="Vector_11" d="M46.313 42.1817C47.5607 42.1817 48.5722 41.1789 48.5722 39.9419C48.5722 38.705 47.5607 37.7022 46.313 37.7022C45.0653 37.7022 44.0539 38.705 44.0539 39.9419C44.0539 41.1789 45.0653 42.1817 46.313 42.1817Z" fill="var(--fill-0, #241132)"/>
<path id="Vector_12" d="M38.0295 55.6201C40.109 55.6201 41.7948 53.2803 41.7948 50.3941C41.7948 47.5078 40.109 45.168 38.0295 45.168C35.95 45.168 34.2642 47.5078 34.2642 50.3941C34.2642 53.2803 35.95 55.6201 38.0295 55.6201Z" fill="var(--fill-0, #241132)"/>
</g>
</g>
</svg>
