<svg preserveAspectRatio="none" width="100%" height="100%" overflow="visible" style="display: block;" viewBox="0 0 78.5608 97.3288" fill="none" xmlns="http://www.w3.org/2000/svg">
<g id="Group 73">
<path id="neon-halo" d="M39.2804 76.3579C60.9744 76.3579 78.5608 59.2646 78.5608 38.179C78.5608 17.0933 60.9744 3.76403e-05 39.2804 3.76403e-05C17.5864 3.76403e-05 2.14577e-06 17.0933 2.14577e-06 38.179C2.14577e-06 59.2646 17.5864 76.3579 39.2804 76.3579Z" fill="var(--fill-0, #FC3DFF)" fill-opacity="0.13"/>
<g id="body">
<path id="Vector" d="M39.38 53.6708H40.7218C51.6359 53.671 60.3457 61.2249 60.3458 70.3866V95.7108H19.755V70.3866C19.7551 61.2248 28.4656 53.6708 39.38 53.6708Z" fill="var(--fill-0, #F3A72F)" stroke="var(--stroke-0, black)"/>
<path id="Vector_2" d="M27.2905 59.9772L39.8966 70.9772L53.2905 59.9772" stroke="var(--stroke-0, #7C5CFF)" stroke-opacity="0.72" stroke-width="3" stroke-linecap="round" stroke-linejoin="round"/>
<path id="Vector_3" d="M39.5418 79.1046C41.3876 79.1046 42.8839 77.6349 42.8839 75.8219C42.8839 74.0089 41.3876 72.5392 39.5418 72.5392C37.696 72.5392 36.1997 74.0089 36.1997 75.8219C36.1997 77.6349 37.696 79.1046 39.5418 79.1046Z" fill="var(--fill-0, #C8FF3D)" fill-opacity="0.72"/>
</g>
<g id="head">
<path id="Vector_4" d="M39.28 19.3847C50.9402 19.3847 60.3464 28.3311 60.3464 39.3105C60.3464 50.2899 50.9402 59.2363 39.28 59.2363C27.6199 59.2361 18.2146 50.2898 18.2145 39.3105C18.2145 28.3312 27.6199 19.3849 39.28 19.3847Z" fill="var(--fill-0, #FFA36C)" stroke="var(--stroke-0, black)"/>
<path id="Vector_5" d="M39.2802 18.8847C51.1906 18.8847 60.8459 28.0295 60.8459 39.3104C60.8459 50.5912 51.1906 59.7361 39.2802 59.7361C47.2133 55.4321 51.3724 48.5749 51.3724 39.3104C51.3724 30.0459 47.2133 23.1886 39.2802 18.8847Z" fill="var(--fill-0, #E97854)" fill-opacity="0.22"/>
</g>
<path id="Vector_6" d="M53.1439 74.0668L54.6843 95.8288" stroke="var(--stroke-0, #1C1304)" stroke-opacity="0.54" stroke-width="3" stroke-linecap="round" stroke-linejoin="round"/>
<path id="Vector_7" d="M27.7273 74.0668L26.1869 95.8288" stroke="var(--stroke-0, #1C1304)" stroke-opacity="0.54" stroke-width="3" stroke-linecap="round" stroke-linejoin="round"/>
<path id="Vector_8" d="M39.28 15.0078C45.573 15.0078 50.8333 16.8664 54.5153 20.2812C58.1924 23.6915 60.3464 28.7004 60.3464 35.1054V36.6884C54.8526 31.6358 48.5067 29.1123 39.28 29.1123C30.0538 29.1123 23.7081 31.6353 18.2145 36.6875V35.1054C18.2145 28.7005 20.3677 23.6915 24.0446 20.2812C27.7266 16.8664 32.987 15.0078 39.28 15.0078Z" fill="var(--fill-0, #2A1435)" stroke="var(--stroke-0, black)"/>
<path id="Vector_9" d="M21.5659 32.23C25.5595 26.7374 31.9494 23.991 39.1379 23.991C46.3265 23.991 52.7163 26.7374 56.71 32.23" stroke="var(--stroke-0, #C75AAE)" stroke-opacity="0.76" stroke-width="4" stroke-linecap="round"/>
<g id="round-glasses">
<path id="Vector_10" d="M30.8083 46.6051C34.6367 46.6051 37.7402 43.6657 37.7402 40.0397C37.7402 36.4138 34.6367 33.4743 30.8083 33.4743C26.98 33.4743 23.8765 36.4138 23.8765 40.0397C23.8765 43.6657 26.98 46.6051 30.8083 46.6051Z" stroke="var(--stroke-0, #2C2E2F)" stroke-width="2"/>
<path id="Vector_11" d="M47.7527 46.605C51.581 46.605 54.6845 43.6656 54.6845 40.0396C54.6845 36.4137 51.581 33.4742 47.7527 33.4742C43.9243 33.4742 40.8209 36.4137 40.8209 40.0396C40.8209 43.6656 43.9243 46.605 47.7527 46.605Z" stroke="var(--stroke-0, #2C2E2F)" stroke-width="2"/>
<path id="Vector_12" d="M37.74 40.0398H40.8208" stroke="var(--stroke-0, #2C2E2F)" stroke-width="2" stroke-linecap="round"/>
</g>
<g id="expression-grin">
<path id="Vector_13" d="M30.8079 41.6449C31.7437 41.6449 32.5023 40.9264 32.5023 40.04C32.5023 39.1537 31.7437 38.4352 30.8079 38.4352C29.8721 38.4352 29.1134 39.1537 29.1134 40.04C29.1134 40.9264 29.8721 41.6449 30.8079 41.6449Z" fill="var(--fill-0, #241132)"/>
<path id="Vector_14" d="M47.7528 41.6447C48.6887 41.6447 49.4473 40.9262 49.4473 40.0399C49.4473 39.1535 48.6887 38.435 47.7528 38.435C46.817 38.435 46.0584 39.1535 46.0584 40.0399C46.0584 40.9262 46.817 41.6447 47.7528 41.6447Z" fill="var(--fill-0, #241132)"/>
<path id="Vector_15" d="M31.5781 49.5234H46.9822C45.4418 54.6298 33.1185 54.6298 31.5781 49.5234Z" fill="var(--fill-0, #241132)"/>
<path id="Vector_16" d="M33.889 50.2528H44.6719" stroke="var(--stroke-0, white)" stroke-opacity="0.8" stroke-width="2" stroke-linecap="round"/>
</g>
</g>
</svg>
