<svg preserveAspectRatio="none" width="100%" height="100%" overflow="visible" style="display: block;" viewBox="0 0 81.6216 97.2048" fill="none" xmlns="http://www.w3.org/2000/svg">
<g id="avatar-1-headphones">
<path id="neon-halo" d="M40.8108 78.8965C63.35 78.8965 81.6216 61.2349 81.6216 39.4483C81.6216 17.6616 63.35 0 40.8108 0C18.2716 0 0 17.6616 0 39.4483C0 61.2349 18.2716 78.8965 40.8108 78.8965Z" fill="var(--fill-0, #BC5800)" fill-opacity="0.35"/>
<g id="body">
<path id="Vector" d="M40.1654 55.5474H41.4564C51.9613 55.5474 60.3314 62.7483 60.3314 71.4653V95.2935L21.2904 95.5884V71.4653L21.2962 71.0581C21.552 62.5251 29.8244 55.5474 40.1654 55.5474Z" fill="var(--fill-0, #FF6030)" stroke="var(--stroke-0, black)"/>
<path id="Vector_2" d="M29.2604 62.2906L40.8106 67.723L53.9009 62.2906" stroke="var(--stroke-0, #AF4322)" stroke-width="3" stroke-linecap="round" stroke-linejoin="round"/>
<path id="Vector_3" d="M53.1309 73.6337L54.6709 95.7048" stroke="var(--stroke-0, #373634)" stroke-opacity="0.58" stroke-width="3" stroke-linecap="round" stroke-linejoin="round"/>
<path id="Vector_4" d="M27.7205 73.6337L26.1804 95.7048" stroke="var(--stroke-0, #373634)" stroke-opacity="0.58" stroke-width="3" stroke-linecap="round" stroke-linejoin="round"/>
</g>
<g id="head">
<path id="Vector_5" d="M40.811 19.1496C52.4395 19.1497 61.8714 28.6311 61.8715 40.3332C61.8715 52.0354 52.4396 61.5177 40.811 61.5178C29.1823 61.5178 19.7504 52.0354 19.7504 40.3332C19.7506 28.6311 29.1824 19.1496 40.811 19.1496Z" fill="var(--fill-0, #FFA36C)" stroke="var(--stroke-0, black)"/>
<path id="Vector_6" d="M40.8109 18.6496C52.7184 18.6496 62.3713 28.3578 62.3713 40.3335C62.3713 52.3092 52.7184 62.0174 40.8109 62.0174C49.2525 57.614 53.6817 50.1989 53.6817 40.3335C53.6817 30.4681 49.2525 23.053 40.8109 18.6496Z" fill="var(--fill-0, #E97854)" fill-opacity="0.24"/>
</g>
<g id="headphones">
<g id="Vector_7">
<path d="M19.2505 44.2056C19.2505 29.1043 28.4214 20.1984 40.811 20.1984C53.2005 20.1984 62.3714 29.1043 62.3714 44.2056" stroke="var(--stroke-0, #33565B)" stroke-width="5" stroke-linecap="round"/>
<path d="M19.2505 44.2056C19.2505 29.1043 28.4214 20.1984 40.811 20.1984C53.2005 20.1984 62.3714 29.1043 62.3714 44.2056" stroke="var(--stroke-1, black)" stroke-opacity="0.18" stroke-width="5" stroke-linecap="round"/>
</g>
<g id="Vector_8">
<path d="M19.2506 33.8636C21.5233 33.8636 23.3707 35.7174 23.3707 38.0101V47.3031C23.3707 49.5958 21.5234 51.4495 19.2506 51.4496C16.9778 51.4496 15.1305 49.5958 15.1305 47.3031V38.0101C15.1305 35.7174 16.9778 33.8636 19.2506 33.8636Z" fill="var(--fill-0, #79888B)"/>
<path d="M19.2506 33.8636C21.5233 33.8636 23.3707 35.7174 23.3707 38.0101V47.3031C23.3707 49.5958 21.5234 51.4495 19.2506 51.4496C16.9778 51.4496 15.1305 49.5958 15.1305 47.3031V38.0101C15.1305 35.7174 16.9778 33.8636 19.2506 33.8636Z" stroke="var(--stroke-0, #33565B)"/>
<path d="M19.2506 33.8636C21.5233 33.8636 23.3707 35.7174 23.3707 38.0101V47.3031C23.3707 49.5958 21.5234 51.4495 19.2506 51.4496C16.9778 51.4496 15.1305 49.5958 15.1305 47.3031V38.0101C15.1305 35.7174 16.9778 33.8636 19.2506 33.8636Z" stroke="var(--stroke-1, black)" stroke-opacity="0.18"/>
</g>
<g id="Vector_9">
<path d="M62.3715 33.8636C64.6443 33.8636 66.4916 35.7174 66.4917 38.0101V47.3031C66.4917 49.5958 64.6443 51.4495 62.3715 51.4496C60.0988 51.4496 58.2514 49.5958 58.2514 47.3031V38.0101C58.2515 35.7174 60.0988 33.8636 62.3715 33.8636Z" fill="var(--fill-0, #79888B)"/>
<path d="M62.3715 33.8636C64.6443 33.8636 66.4916 35.7174 66.4917 38.0101V47.3031C66.4917 49.5958 64.6443 51.4495 62.3715 51.4496C60.0988 51.4496 58.2514 49.5958 58.2514 47.3031V38.0101C58.2515 35.7174 60.0988 33.8636 62.3715 33.8636Z" stroke="var(--stroke-0, #33565B)"/>
<path d="M62.3715 33.8636C64.6443 33.8636 66.4916 35.7174 66.4917 38.0101V47.3031C66.4917 49.5958 64.6443 51.4495 62.3715 51.4496C60.0988 51.4496 58.2514 49.5958 58.2514 47.3031V38.0101C58.2515 35.7174 60.0988 33.8636 62.3715 33.8636Z" stroke="var(--stroke-1, black)" stroke-opacity="0.18"/>
</g>
</g>
<g id="expression-happy">
<path id="Vector_10" d="M32.3405 41.8822C33.6163 41.8822 34.6506 40.8421 34.6506 39.5589C34.6506 38.2758 33.6163 37.2357 32.3405 37.2357C31.0647 37.2357 30.0305 38.2758 30.0305 39.5589C30.0305 40.8421 31.0647 41.8822 32.3405 41.8822Z" fill="var(--fill-0, #22152B)"/>
<path id="Vector_11" d="M49.2809 41.8823C50.5567 41.8823 51.5909 40.8421 51.5909 39.559C51.5909 38.2759 50.5567 37.2357 49.2809 37.2357C48.0051 37.2357 46.9708 38.2759 46.9708 39.559C46.9708 40.8421 48.0051 41.8823 49.2809 41.8823Z" fill="var(--fill-0, #22152B)"/>
<path id="Vector_12" d="M33.1106 50.4009C36.9607 54.273 44.6609 54.273 48.511 50.4009" stroke="var(--stroke-0, #22152B)" stroke-width="4" stroke-linecap="round"/>
</g>
</g>
</svg>
