<!-- Skull / elimination mark; stroke+fill=currentColor -->
<svg xmlns="http://www.w3.org/2000/svg" width="24" height="24" viewBox="0 0 24 24" fill="none" aria-hidden="true">
  <path
    d="M12 3.2a4.8 4.8 0 0 0-4.8 4.8V11c0 .9.2 1.7.7 2.4L9.2 19h5.6l1.1-5.6c.5-.7.7-1.5.7-2.4V8a4.8 4.8 0 0 0-4.8-4.8Z"
    stroke="currentColor"
    stroke-width="1.5"
    stroke-linecap="round"
    stroke-linejoin="round"
  />
  <circle cx="8.7" cy="9.6" r="0.7" fill="currentColor" />
  <circle cx="15.3" cy="9.6" r="0.7" fill="currentColor" />
  <path
    d="M9.2 14.1c.7.6 1.5.9 2.4.9s1.7-.3 2.4-.9"
    stroke="currentColor"
    stroke-width="1.2"
    stroke-linecap="round"
  />
  <path
    d="M10 19.1v.9a1 1 0 0 0 1 1h2a1 1 0 0 0 1-1v-.9"
    stroke="currentColor"
    stroke-width="1.2"
    stroke-linecap="round"
    stroke-linejoin="round"
  />
</svg>
