<svg preserveAspectRatio="none" width="100%" height="100%" overflow="visible" style="display: block;" viewBox="0 0 21.4804 24" fill="none" xmlns="http://www.w3.org/2000/svg">
<g id="Group">
<path id="Vector" fill-rule="evenodd" clip-rule="evenodd" d="M0.00309074 6.87256C0.00322502 6.30721 0.41451 5.61319 0.923413 5.32129L9.82008 0.218505C10.3283 -0.0730056 11.1514 -0.0730056 11.6606 0.21953L20.5604 5.33205C21.0687 5.62394 21.4805 6.31822 21.4804 6.886L21.4766 17.0771C21.4765 17.6434 21.0646 18.3401 20.5571 18.6331L11.6413 23.7803C11.1336 24.0735 10.3115 24.0734 9.80303 23.779L0.918445 18.6344C0.410885 18.3406 -0.000265975 17.6444 2.57527e-06 17.0788L0.00309074 6.87256ZM1.87435 6.04373L10.7142 10.7498L19.1421 6.10531L10.7 1.37892L1.87435 6.04373ZM1.30422 7.56683C1.30422 7.77526 1.16121 16.7667 1.16121 16.7667C1.15665 17.0491 1.3582 17.3961 1.61332 17.543L9.88628 22.3032L9.96242 12.3924C9.96242 12.3924 1.30422 7.35828 1.30422 7.56683ZM11.5235 22.2817L19.7025 17.3323C20.0156 17.1428 20.2695 16.703 20.2695 16.3492V7.51627L11.5235 12.3188V22.2817Z" fill="var(--fill-0, white)" fill-opacity="0.8"/>
<path id="Vector_2" fill-rule="evenodd" clip-rule="evenodd" d="M4.01321 12.5295C3.37111 12.8831 2.5198 12.6236 2.11187 11.9501C1.70408 11.2765 1.89408 10.4439 2.53618 10.0904C3.17842 9.73679 4.02973 9.9963 4.43752 10.6698C4.84545 11.3434 4.65545 12.176 4.01321 12.5295ZM8.31002 15.218C7.66791 15.5716 6.81661 15.3121 6.40868 14.6386C6.00089 13.965 6.19089 13.1324 6.83299 12.7789C7.47523 12.4253 8.32653 12.6848 8.73433 13.3583C9.14225 14.0319 8.95226 14.8645 8.31002 15.218ZM4.01321 17.2664C3.37111 17.62 2.5198 17.3605 2.11187 16.687C1.70408 16.0134 1.89408 15.1808 2.53618 14.8273C3.17842 14.4737 4.02973 14.7332 4.43752 15.4067C4.84545 16.0803 4.65545 16.9129 4.01321 17.2664ZM8.31002 19.9549C7.66791 20.3085 6.81661 20.049 6.40868 19.3755C6.00089 18.7019 6.19089 17.8693 6.83299 17.5158C7.47523 17.1622 8.32653 17.4217 8.73433 18.0952C9.14225 18.7688 8.95226 19.6014 8.31002 19.9549ZM18.8154 9.96237C18.1732 9.60877 17.322 9.86827 16.9141 10.5418C16.5063 11.2153 16.6962 12.048 17.3384 12.4015C17.9807 12.7551 18.832 12.4956 19.2398 11.822C19.6477 11.1485 19.4577 10.3158 18.8154 9.96237ZM16.6351 13.6751C15.993 13.3215 15.1417 13.581 14.7337 14.2545C14.3259 14.928 14.5159 15.7607 15.1581 16.1142C15.8003 16.4678 16.6516 16.2083 17.0594 15.5347C17.4673 14.8612 17.2773 14.0285 16.6351 13.6751ZM14.3524 17.2597C13.7103 16.9061 12.859 17.1656 12.4511 17.8392C12.0433 18.5127 12.2333 19.3454 12.8754 19.6989C13.5176 20.0525 14.3689 19.793 14.7767 19.1194C15.1846 18.4459 14.9946 17.6132 14.3524 17.2597ZM10.8263 4.42725C9.97355 4.42725 9.28217 5.05776 9.28217 5.83551C9.28217 6.61326 9.97355 7.24378 10.8263 7.24378C11.6791 7.24378 12.3705 6.61326 12.3705 5.83551C12.3705 5.05776 11.6791 4.42725 10.8263 4.42725Z" fill="var(--fill-0, white)" fill-opacity="0.8"/>
</g>
</svg>
