<svg preserveAspectRatio="none" width="100%" height="100%" overflow="visible" style="display: block;" viewBox="0 0 22 22" fill="none" xmlns="http://www.w3.org/2000/svg">
<path id="Vector" d="M21.0829 10.0831C20.8396 10.0831 20.6064 10.1797 20.4344 10.3516C20.2624 10.5235 20.1657 10.7566 20.1657 10.9997C20.1732 13.1312 19.4398 15.199 18.0908 16.8499C16.7418 18.5007 14.861 19.6321 12.77 20.0505C10.6789 20.4689 8.5073 20.1485 6.6264 19.144C4.74551 18.1394 3.27207 16.5132 2.45793 14.5432C1.64379 12.5731 1.5395 10.3817 2.16288 8.3433C2.78625 6.30493 4.0986 4.54624 5.87561 3.36781C7.65262 2.18939 9.78396 1.6644 11.9053 1.88258C14.0267 2.10075 16.0064 3.04855 17.5061 4.56397C17.4759 4.57219 17.4453 4.57862 17.4144 4.58322H14.663C14.4198 4.58322 14.1865 4.67979 14.0145 4.8517C13.8425 5.0236 13.7459 5.25675 13.7459 5.49986C13.7459 5.74297 13.8425 5.97612 14.0145 6.14803C14.1865 6.31993 14.4198 6.4165 14.663 6.4165H17.4144C18.1441 6.4165 18.8439 6.12678 19.3599 5.61107C19.8759 5.09536 20.1657 4.3959 20.1657 3.66657V0.916644C20.1657 0.673535 20.0691 0.440383 19.8971 0.268479C19.7251 0.0965747 19.4919 0 19.2486 0C19.0054 0 18.7721 0.0965747 18.6001 0.268479C18.4281 0.440383 18.3315 0.673535 18.3315 0.916644V2.80951C16.4537 1.13162 14.0567 0.148649 11.541 0.0248434C9.02523 -0.098962 6.54318 0.643903 4.50958 2.1293C2.47598 3.6147 1.01401 5.75266 0.367978 8.18591C-0.278054 10.6192 -0.0690152 13.2003 0.960163 15.498C1.98934 17.7957 3.77631 19.6708 6.02247 20.81C8.26863 21.9492 10.8379 22.2834 13.301 21.7568C15.764 21.2302 17.9717 19.8747 19.555 17.9168C21.1383 15.9589 22.0014 13.5172 22 10.9997C22 10.7566 21.9034 10.5235 21.7314 10.3516C21.5594 10.1797 21.3261 10.0831 21.0829 10.0831ZM10.9945 5.49986C10.7513 5.49986 10.518 5.59644 10.346 5.76834C10.174 5.94024 10.0774 6.1734 10.0774 6.4165V10.9997C10.0774 11.2428 10.1741 11.4759 10.3461 11.6478L13.0975 14.3977C13.2704 14.5647 13.5021 14.6571 13.7426 14.655C13.983 14.6529 14.2131 14.5565 14.3831 14.3866C14.5532 14.2166 14.6496 13.9867 14.6517 13.7464C14.6538 13.506 14.5613 13.2745 14.3943 13.1016L11.9116 10.6202V6.4165C11.9116 6.1734 11.815 5.94024 11.643 5.76834C11.471 5.59644 11.2377 5.49986 10.9945 5.49986Z" fill="var(--fill-0, white)" fill-opacity="0.94"/>
</svg>
